<svg width="20" height="20" viewBox="0 0 20 20" fill="none" xmlns="http://www.w3.org/2000/svg">
<path d="M18.5286 3.33328C18.5286 4.8291 17.3162 6.04172 15.8203 6.04172C14.3245 6.04172 13.1121 4.8291 13.1121 3.33328C13.1121 1.83762 14.3245 0.625 15.8203 0.625C17.3162 0.625 18.5286 1.83762 18.5286 3.33328Z" fill="white"/>
<path d="M15.8203 6.66672C13.982 6.66672 12.4871 5.17166 12.4871 3.33328C12.4871 1.49506 13.982 0 15.8203 0C17.6587 0 19.1536 1.49506 19.1536 3.33328C19.1536 5.17166 17.6587 6.66672 15.8203 6.66672ZM15.8203 1.25C14.6712 1.25 13.7371 2.18506 13.7371 3.33328C13.7371 4.48166 14.6712 5.41672 15.8203 5.41672C16.9695 5.41672 17.9036 4.48166 17.9036 3.33328C17.9036 2.18506 16.9695 1.25 15.8203 1.25Z" fill="white"/>
<path d="M18.5286 16.6667C18.5286 18.1624 17.3162 19.375 15.8203 19.375C14.3245 19.375 13.1121 18.1624 13.1121 16.6667C13.1121 15.1709 14.3245 13.9583 15.8203 13.9583C17.3162 13.9583 18.5286 15.1709 18.5286 16.6667Z" fill="white"/>
<path d="M15.8203 20C13.982 20 12.4871 18.5049 12.4871 16.6667C12.4871 14.8283 13.982 13.3333 15.8203 13.3333C17.6587 13.3333 19.1536 14.8283 19.1536 16.6667C19.1536 18.5049 17.6587 20 15.8203 20ZM15.8203 14.5833C14.6712 14.5833 13.7371 15.5183 13.7371 16.6667C13.7371 17.8149 14.6712 18.75 15.8203 18.75C16.9695 18.75 17.9036 17.8149 17.9036 16.6667C17.9036 15.5183 16.9695 14.5833 15.8203 14.5833Z" fill="white"/>
<path d="M6.86203 10C6.86203 11.4958 5.64941 12.7083 4.15359 12.7083C2.65793 12.7083 1.44531 11.4958 1.44531 10C1.44531 8.50421 2.65793 7.29175 4.15359 7.29175C5.64941 7.29175 6.86203 8.50421 6.86203 10Z" fill="white"/>
<path d="M4.15359 13.3333C2.31537 13.3333 0.820312 11.8384 0.820312 10C0.820312 8.16165 2.31537 6.66675 4.15359 6.66675C5.99197 6.66675 7.48703 8.16165 7.48703 10C7.48703 11.8384 5.99197 13.3333 4.15359 13.3333ZM4.15359 7.91675C3.00446 7.91675 2.07031 8.85165 2.07031 10C2.07031 11.1484 3.00446 12.0833 4.15359 12.0833C5.30289 12.0833 6.23703 11.1484 6.23703 10C6.23703 8.85165 5.30289 7.91675 4.15359 7.91675Z" fill="white"/>
<path d="M6.12121 9.59998C5.83114 9.59998 5.54947 9.44907 5.39612 9.17915C5.16861 8.77998 5.30868 8.27079 5.70785 8.04237L13.4402 3.6341C13.8394 3.40492 14.3486 3.54499 14.577 3.94569C14.8045 4.34486 14.6645 4.85404 14.2653 5.08247L6.53274 9.49073C6.40274 9.56489 6.26114 9.59998 6.12121 9.59998Z" fill="white"/>
<path d="M13.8528 16.4751C13.7127 16.4751 13.5711 16.44 13.4411 16.3658L5.70859 11.9576C5.30942 11.73 5.1695 11.2209 5.39701 10.8208C5.6236 10.4208 6.13355 10.28 6.53363 10.5092L14.2662 14.9175C14.6653 15.145 14.8053 15.6542 14.5777 16.0542C14.4236 16.3242 14.142 16.4751 13.8528 16.4751Z" fill="white"/>
</svg>
