<svg width="18" height="18" viewBox="0 0 18 18" fill="none" xmlns="http://www.w3.org/2000/svg">
<path d="M17.5765 6.9505L16.193 6.64975C16.0727 6.28143 15.9237 5.92218 15.7478 5.57611L16.5137 4.38478C16.6505 4.17192 16.6204 3.89246 16.4416 3.71365L14.2863 1.55841C14.1075 1.37961 13.8281 1.34953 13.6152 1.48631L12.4239 2.2522C12.0778 2.07628 11.7186 1.92728 11.3503 1.80698L11.0495 0.423523C10.9958 0.176331 10.7769 0 10.5239 0H7.47606C7.2231 0 7.0042 0.176331 6.9505 0.423523L6.64975 1.80698C6.28143 1.92728 5.92218 2.07628 5.57611 2.2522L4.38478 1.48631C4.17192 1.34953 3.89246 1.37961 3.71365 1.55841L1.55841 3.71365C1.37961 3.89246 1.34953 4.17192 1.48631 4.38478L2.2522 5.57611C2.07628 5.92218 1.92728 6.28143 1.80698 6.64975L0.423523 6.9505C0.176331 7.00433 0 7.2231 0 7.47606V10.5239C0 10.7769 0.176331 10.9957 0.423523 11.0495L1.80698 11.3503C1.92728 11.7186 2.07628 12.0778 2.2522 12.4239L1.48631 13.6152C1.34953 13.8281 1.37961 14.1075 1.55841 14.2863L3.71365 16.4416C3.89246 16.6204 4.17192 16.6505 4.38478 16.5137L5.57611 15.7478C5.92218 15.9237 6.28143 16.0727 6.64975 16.193L6.9505 17.5765C7.0042 17.8237 7.2231 18 7.47606 18H10.5239C10.7769 18 10.9958 17.8237 11.0495 17.5765L11.3503 16.193C11.7186 16.0727 12.0778 15.9237 12.4239 15.7478L13.6152 16.5137C13.8281 16.6505 14.1075 16.6205 14.2863 16.4416L16.4416 14.2863C16.6204 14.1075 16.6505 13.8281 16.5137 13.6152L15.7478 12.4239C15.9237 12.0778 16.0727 11.7186 16.193 11.3503L17.5765 11.0495C17.8237 10.9957 18 10.7769 18 10.5239V7.47606C18 7.2231 17.8237 7.00433 17.5765 6.9505ZM12.2271 9C12.2271 10.7794 10.7794 12.2271 9 12.2271C7.22063 12.2271 5.7729 10.7794 5.7729 9C5.7729 7.22063 7.22063 5.7729 9 5.7729C10.7794 5.7729 12.2271 7.22063 12.2271 9Z" fill="#293440"/>
</svg>
