<svg width="17" height="22" viewBox="0 0 17 22" fill="none" xmlns="http://www.w3.org/2000/svg">
<path d="M14.7157 7.5309C12.9159 5.54306 11.8463 3.79317 11.2659 2.6752C10.6373 1.46427 10.4313 0.713378 10.4298 0.707402L10.2426 0L9.57438 0.298074C9.49628 0.33289 7.6499 1.17491 6.61534 3.244C6.096 4.28271 5.99214 5.4392 5.99649 6.2264C5.99902 6.68453 5.67443 7.08232 5.22473 7.17224C4.90943 7.23524 4.58509 7.13722 4.35752 6.90965L3.11273 5.66486L2.68452 6.25532C2.64008 6.31661 1.5936 7.75984 1.40309 8.04821C0.472766 9.45649 -0.0123353 11.097 0.000238358 12.7924C0.0170862 15.0567 0.907532 17.178 2.50754 18.7658C4.10746 20.3534 6.23564 21.2278 8.50006 21.2278C13.187 21.2277 17 17.4147 17 12.7278C17 11.0284 16.1674 9.13427 14.7157 7.5309ZM10.5945 16.3588C9.72899 16.3588 9.07571 15.7872 9.07571 14.7665C9.07571 13.754 9.72895 13.1742 10.5945 13.1742C11.4601 13.1742 12.1134 13.7539 12.1134 14.7665C12.1134 15.7872 11.4601 16.3588 10.5945 16.3588ZM9.76165 10.5611H11.1416L7.23842 16.2771H5.85843L9.76165 10.5611ZM4.88673 12.0718C4.88673 11.0593 5.53998 10.4795 6.40557 10.4795C7.27116 10.4795 7.92441 11.0593 7.92441 12.0718C7.92441 13.0925 7.27116 13.6641 6.40557 13.6641C5.53998 13.6641 4.88673 13.0925 4.88673 12.0718Z" fill="#293440"/>
</svg>
