<svg width="21" height="20" viewBox="0 0 21 20" fill="none" xmlns="http://www.w3.org/2000/svg">
<path fill-rule="evenodd" clip-rule="evenodd" d="M0 0H10.081V20H0V0ZM11.3113 7.3708H20.0824V6.14853H11.3113V7.3708ZM11.3113 8.59307H20.0824V19.9867H11.3113V8.59307ZM14.1039 13.7425H17.3721V19.9867H14.1039V13.7425ZM1.27275 2.31168H3.79965V4.88375H1.27275V2.31168ZM1.27275 7.3336H3.79965V9.90567H1.27275V7.3336ZM1.26744 12.3688H3.79434V14.9409H1.26744V12.3688ZM6.2495 2.31168H8.7764V4.88375H6.2495V2.31168ZM6.2495 7.3336H8.7764V9.90567H6.2495V7.3336ZM6.24419 12.3688H8.77109V14.9409H6.24419V12.3688Z" fill="#293440"/>
</svg>
