<svg width="18" height="18" viewBox="0 0 18 18" fill="none" xmlns="http://www.w3.org/2000/svg">
<path d="M15.7314 13.5H11.9814V14.25H15.7314V13.5Z" fill="#1D68D9"/>
<path d="M8.98145 9.75C6.29345 9.75 4.10645 7.563 4.10645 4.875C4.10645 2.187 6.29345 0 8.98145 0C11.6694 0 13.8564 2.187 13.8564 4.875C13.8564 7.563 11.6694 9.75 8.98145 9.75ZM8.98145 0.75C6.7067 0.75 4.85645 2.60025 4.85645 4.875C4.85645 7.14975 6.7067 9 8.98145 9C11.2554 9 13.1064 7.14975 13.1064 4.875C13.1064 2.60025 11.2554 0.75 8.98145 0.75Z" fill="#1D68D9"/>
<path d="M13.8564 18C11.5824 18 9.73145 16.149 9.73145 13.875C9.73145 11.601 11.5824 9.75 13.8564 9.75C16.1304 9.75 17.9814 11.601 17.9814 13.875C17.9814 16.149 16.1304 18 13.8564 18ZM13.8564 10.5C11.9957 10.5 10.4814 12.0143 10.4814 13.875C10.4814 15.7358 11.9957 17.25 13.8564 17.25C15.7172 17.25 17.2314 15.7358 17.2314 13.875C17.2314 12.0143 15.7172 10.5 13.8564 10.5Z" fill="#1D68D9"/>
<path d="M14.2314 12H13.4814V15.75H14.2314V12Z" fill="#1D68D9"/>
<path d="M9.73125 18H0.375L0 17.6093C0.2085 12.7815 4.1535 9 8.98125 9V9.75C4.6875 9.75 1.15575 13.014 0.77625 17.25H9.73125V18Z" fill="#1D68D9"/>
</svg>
