<svg width="20" height="20" viewBox="0 0 20 20" fill="none" xmlns="http://www.w3.org/2000/svg">
<path d="M11.5909 14.0091C11.5909 14.26 11.3875 14.4636 11.1364 14.4636H8.86366C8.61275 14.4636 8.40912 14.26 8.40912 14.0091V12.4122L0 10.5018V18.1143C0 18.6164 0.407059 19.0234 0.909085 19.0234H19.0909C19.593 19.0234 20 18.6163 20 18.1143V10.5095L11.5909 12.4134V14.0091Z" fill="#293440"/>
<path d="M19.0909 5.3869H0.909085C0.407059 5.3869 0 5.79393 0 6.29599V9.33668L8.40909 11.2469V10.3726C8.40909 10.1217 8.61271 9.91805 8.86363 9.91805H11.1363C11.3875 9.91805 11.5909 10.1217 11.5909 10.3726V11.248L20 9.34416V6.29599C20 5.79393 19.5929 5.3869 19.0909 5.3869Z" fill="#293440"/>
<path d="M6.49221 3.27696C6.49221 2.59787 7.0447 2.04536 7.72359 2.04536H12.2761C12.9552 2.04536 13.5077 2.59784 13.5077 3.27696V4.47765H14.5765V3.27696C14.5765 2.00833 13.5447 0.976501 12.2761 0.976501H7.72355C6.45516 0.976501 5.4231 2.00833 5.4231 3.27696V4.47765H6.49218L6.49221 3.27696Z" fill="#293440"/>
</svg>
