<svg width="27" height="28" viewBox="0 0 27 28" fill="none" xmlns="http://www.w3.org/2000/svg">
<g clip-path="url(#clip0)">
<path d="M8.56697 5.43306C7.398 6.60203 6.67626 8.21691 6.67561 9.99991L6.67364 12.2649C6.67364 13.5482 6.41095 14.8104 5.91841 15.9833L20.344 15.982C19.8521 14.8097 19.5907 13.5475 19.59 12.2649L19.5907 9.99728C19.5907 6.95009 17.478 4.40398 14.6403 3.72427C14.8682 3.12994 14.7257 2.4568 14.2759 2.00694C13.6454 1.37649 12.6235 1.37649 11.9931 2.00694C11.5426 2.45746 11.4001 3.1306 11.6279 3.72493C10.4504 4.00666 9.39509 4.60494 8.56697 5.43306ZM4.5603 17.4189C4.32782 17.6514 4.25952 18.0008 4.38759 18.3035C4.51499 18.6056 4.8138 18.8006 5.14216 18.7967L11.3331 18.796C10.9417 19.5723 11.0921 20.5121 11.7054 21.1281C12.4935 21.9161 13.7708 21.9155 14.5589 21.1274C15.1742 20.5121 15.3246 19.5723 14.9339 18.7954L21.1235 18.7947C21.4157 18.8006 21.6883 18.6476 21.836 18.3961C21.9838 18.1433 21.9845 17.8313 21.836 17.5791C21.6889 17.327 21.4157 17.1746 21.1228 17.1812L5.14282 17.1818C4.92478 17.1792 4.71529 17.2639 4.56096 17.4182L4.5603 17.4189Z" fill="#293440"/>
</g>
<defs>
<clipPath id="clip0">
<rect width="18.5749" height="18.5749" fill="white" transform="translate(0 14) rotate(-45)"/>
</clipPath>
</defs>
</svg>
