<svg width="354" height="46" viewBox="0 0 354 46" fill="none" xmlns="http://www.w3.org/2000/svg">
<path d="M78.7059 31.6386H64.5521C61.5905 31.6386 59.2755 31.3 57.6034 30.6227C55.9351 29.9417 54.7413 28.8092 54.0334 27.2177C53.3217 25.6262 52.9658 23.4176 52.9658 20.5995V11.7276C53.0041 8.67999 53.3905 6.34725 54.1482 4.72563C54.8943 3.09648 56.1302 1.96397 57.8636 1.31683C59.6046 0.665919 62.0764 0.342346 65.283 0.342346H77.7838C80.5081 0.342346 82.7619 0.643344 84.5373 1.23405C86.3242 1.83605 87.7056 2.9234 88.6813 4.49235C89.6685 6.06131 90.1545 8.25107 90.1545 11.0579H82.2721C82.2721 9.42496 81.8282 8.25859 80.9367 7.57758C80.0413 6.89281 78.5605 6.55795 76.5019 6.55795H66.7485C64.9462 6.55795 63.6261 6.67835 62.7881 6.91539C61.9463 7.14866 61.3686 7.64531 61.0471 8.38651C60.7257 9.13901 60.565 10.3468 60.565 12.006V19.7492C60.565 21.3031 60.7716 22.4958 61.1849 23.316C61.5905 24.1325 62.2295 24.6893 63.0866 24.979C63.9475 25.2725 65.1529 25.423 66.7025 25.423H76.456C77.9751 25.423 79.1421 25.3026 79.961 25.0693C80.776 24.836 81.3729 24.3883 81.7517 23.7261C82.1267 23.0752 82.318 22.1045 82.318 20.829H90.2004C90.1851 23.696 89.8636 25.8971 89.2476 27.4209C88.6201 28.9484 87.4989 30.032 85.8727 30.6754C84.2465 31.315 81.8589 31.6386 78.7059 31.6386ZM97.9182 31.68H89.041L105.892 0.432646H117.157L133.871 31.68H124.944L120.857 23.8014H102.047L97.9182 31.68ZM105.108 17.9018H117.8L111.747 6.28705H111.387L105.108 17.9018ZM143.525 6.64825V16.1936H159.416C161.011 16.1936 162.133 15.8249 162.775 15.0912C163.414 14.3538 163.743 13.131 163.766 11.4191C163.766 9.70714 163.453 8.48434 162.829 7.75066C162.201 7.01321 161.065 6.64825 159.416 6.64825H143.525ZM171.963 31.68H164.314V26.8264C164.314 25.2725 163.851 24.1475 162.917 23.4477C161.995 22.7516 160.445 22.4055 158.279 22.4055H143.571V31.68H135.926V0.432646H160.059C161.826 0.432646 163.391 0.598194 164.742 0.929292C166.085 1.26039 167.26 1.82852 168.255 2.63745C169.238 3.45015 170.007 4.5676 170.551 6.00863C171.102 7.44966 171.366 9.25941 171.366 11.4266C171.366 13.59 170.956 15.2756 170.122 16.4984C169.292 17.7174 168.163 18.7446 166.743 19.5686C168.109 20.0878 169.093 20.4942 169.674 20.7839C170.26 21.0849 170.788 21.5815 171.258 22.2851C171.725 23 171.963 23.9669 171.963 25.1972V31.68ZM187.524 25.4681H201.208C203.079 25.4681 204.514 25.2875 205.512 24.9188C206.511 24.5614 207.2 24.0045 207.575 23.2483C207.946 22.4883 208.13 21.4611 208.13 20.148V11.9609C208.13 10.0909 207.644 8.74771 206.656 7.90868C205.681 7.06589 203.863 6.64825 201.208 6.64825H187.524V25.4681ZM179.921 0.432646H204.46C206.438 0.432646 208.13 0.643344 209.534 1.06474C210.946 1.48238 212.105 2.1521 213.008 3.05133C213.915 3.96185 214.588 5.12445 215.029 6.55795C215.48 7.98393 215.71 9.74477 215.733 11.8329V20.1104C215.733 22.8344 215.365 25.0467 214.634 26.7436C213.9 28.4405 212.71 29.6859 211.061 30.4798C209.411 31.2849 207.23 31.68 204.506 31.68H179.921V0.432646ZM229.515 25.4681H243.198C245.069 25.4681 246.504 25.2875 247.503 24.9188C248.506 24.5614 249.19 24.0045 249.565 23.2483C249.937 22.4883 250.12 21.4611 250.12 20.148V11.9609C250.12 10.0909 249.634 8.74771 248.647 7.90868C247.671 7.06589 245.854 6.64825 243.198 6.64825H229.515V25.4681ZM221.912 0.432646H246.451C248.429 0.432646 250.12 0.643344 251.525 1.06474C252.937 1.48238 254.1 2.1521 254.999 3.05133C255.906 3.96185 256.579 5.12445 257.019 6.55795C257.471 7.98393 257.7 9.74477 257.723 11.8329V20.1104C257.723 22.8344 257.356 25.0467 256.625 26.7436C255.89 28.4405 254.7 29.6859 253.051 30.4798C251.402 31.2849 249.221 31.68 246.497 31.68H221.912V0.432646ZM263.31 31.68V0.432646H295.784V6.3322H270.913V13.1761H294.996V18.6242H270.913V25.7842H295.784V31.68H263.31ZM310.474 0.432646H300.173L314.817 15.6142L298.386 31.68H309.552L320.824 19.3428L332.097 31.68H343.262L326.832 15.6142L341.475 0.432646H331.175L320.824 11.8254L310.474 0.432646Z" fill="#2B2A29"/>
<path d="M54.4159 41.4775C54.4197 41.7822 54.4618 42.0155 54.5383 42.1773C54.6148 42.3429 54.7449 42.4595 54.9286 42.5235C55.1123 42.5912 55.3801 42.625 55.7245 42.625H57.9361C58.2996 42.625 58.5751 42.5912 58.7588 42.5272C58.9386 42.4633 59.0649 42.3504 59.1376 42.1886C59.2065 42.0268 59.2409 41.7898 59.2409 41.47V39.7204C59.2409 39.3818 59.1988 39.1297 59.1147 38.9529C59.0305 38.7798 58.8966 38.6594 58.7091 38.5954C58.5216 38.5277 58.2537 38.4938 57.9055 38.4938H55.7551C55.3992 38.4938 55.1314 38.5277 54.9439 38.5992C54.7564 38.6669 54.6225 38.7911 54.546 38.9642C54.4694 39.1372 54.4273 39.3931 54.4159 39.7279V41.4775ZM60.9092 41.6468C60.9092 42.0908 60.871 42.4557 60.7868 42.7492C60.7064 43.0389 60.5687 43.2759 60.3812 43.4603C60.1899 43.6409 59.9335 43.7764 59.6083 43.8591C59.283 43.9457 58.8736 43.9871 58.3876 43.9871H55.3227C54.8559 43.9871 54.458 43.9457 54.1327 43.8554C53.8075 43.7688 53.5434 43.6296 53.3368 43.4415C53.134 43.2496 52.9848 43.0088 52.8891 42.7191C52.7973 42.4256 52.7476 42.0682 52.7476 41.6468V39.5624C52.7476 39.0846 52.7935 38.6933 52.8853 38.3847C52.9771 38.0724 53.1225 37.8279 53.3215 37.6435C53.5243 37.4592 53.7807 37.3275 54.1021 37.2485C54.4235 37.1695 54.8291 37.1281 55.3227 37.1281H58.3876C58.9922 37.1281 59.4743 37.1996 59.834 37.3388C60.1975 37.4817 60.4692 37.7301 60.6452 38.0837C60.8212 38.4374 60.9092 38.9303 60.9092 39.5624V41.6468ZM62.8607 37.1281H69.4076V38.4261H64.529V39.8295H67.7585C68.3171 39.8295 68.7686 39.8897 69.1054 40.0139C69.4459 40.138 69.6946 40.36 69.8553 40.6686C70.0199 40.9846 70.1002 41.4173 70.1002 41.9704C70.1002 42.4858 70.016 42.8884 69.8477 43.1856C69.6831 43.4791 69.4306 43.6861 69.0977 43.8065C68.761 43.9269 68.3171 43.9871 67.7661 43.9871H62.8607V37.1281ZM64.529 41.1238V42.6928H67.4179C67.7125 42.6928 67.9345 42.6702 68.0761 42.6213C68.2176 42.5724 68.3133 42.4934 68.3592 42.3842C68.409 42.2751 68.4319 42.1133 68.4319 41.8951C68.4319 41.6995 68.409 41.549 68.3669 41.4436C68.3286 41.3383 68.2368 41.2593 68.099 41.2028C67.9651 41.1501 67.7546 41.1238 67.4753 41.1238H64.529ZM73.7391 41.4775C73.7429 41.7822 73.785 42.0155 73.8615 42.1773C73.9381 42.3429 74.0682 42.4595 74.2518 42.5235C74.4355 42.5912 74.6995 42.625 75.0477 42.625H77.2594C77.6229 42.625 77.8984 42.5912 78.0821 42.5272C78.2619 42.4633 78.3882 42.3504 78.457 42.1886C78.5297 42.0268 78.5642 41.7898 78.5642 41.47V39.7204C78.5642 39.3818 78.5221 39.1297 78.4379 38.9529C78.3537 38.7798 78.216 38.6594 78.0285 38.5954C77.8448 38.5277 77.577 38.4938 77.2288 38.4938H75.0783C74.7225 38.4938 74.4546 38.5277 74.2671 38.5992C74.0797 38.6669 73.9457 38.7911 73.8692 38.9642C73.7927 39.1372 73.7468 39.3931 73.7391 39.7279V41.4775ZM80.2325 41.6468C80.2325 42.0908 80.1942 42.4557 80.11 42.7492C80.0297 43.0389 79.8919 43.2759 79.7044 43.4603C79.5131 43.6409 79.2568 43.7764 78.9277 43.8591C78.6063 43.9457 78.1968 43.9871 77.7109 43.9871H74.646C74.1753 43.9871 73.7812 43.9457 73.456 43.8554C73.1307 43.7688 72.8667 43.6296 72.6601 43.4415C72.4573 43.2496 72.3042 43.0088 72.2124 42.7191C72.1167 42.4256 72.0708 42.0682 72.0708 41.6468V39.5624C72.0708 39.0846 72.1167 38.6933 72.2086 38.3847C72.3004 38.0724 72.4458 37.8279 72.6448 37.6435C72.8437 37.4592 73.1039 37.3275 73.4253 37.2485C73.7468 37.1695 74.1524 37.1281 74.646 37.1281H77.7109C78.3116 37.1281 78.7938 37.1996 79.1573 37.3388C79.5208 37.4817 79.7924 37.7301 79.9685 38.0837C80.1445 38.4374 80.2325 38.9303 80.2325 39.5624V41.6468ZM82.0959 43.9871V37.1281H86.8521C87.2998 37.1281 87.6786 37.1732 87.9809 37.2635C88.2908 37.3501 88.5396 37.4893 88.7347 37.6774C88.926 37.8655 89.0714 38.1101 89.1633 38.4148C89.2551 38.7158 89.301 39.0883 89.301 39.5323C89.2972 40.1117 89.213 40.5783 89.0485 40.9357C88.8801 41.2931 88.6199 41.5527 88.2641 41.7183C87.9082 41.8801 87.4414 41.9628 86.8674 41.9628H83.7642V43.9871H82.0959ZM83.7642 40.5971H86.5498C86.8253 40.5971 87.0396 40.5632 87.2003 40.488C87.361 40.4127 87.472 40.2998 87.537 40.1456C87.6021 39.9913 87.6327 39.7881 87.6327 39.5323C87.6327 39.1711 87.5562 38.9077 87.4031 38.7422C87.2501 38.5766 86.9631 38.4938 86.5498 38.4938H83.7642V40.5971ZM96.992 37.1281H98.9741L95.7255 42.2864C95.4615 42.6965 95.2396 43.0088 95.0712 43.2195C94.899 43.434 94.7307 43.592 94.5623 43.7049C94.3978 43.8177 94.2103 43.893 94.0075 43.9306C93.8047 43.9682 93.533 43.9871 93.1924 43.9871H92.542V42.6928H92.871C93.5139 42.6928 93.8353 42.5573 93.8353 42.2789C93.8353 42.1961 93.797 42.0908 93.7167 41.9628L90.491 37.1281H92.4578L94.7919 40.9959L96.992 37.1281ZM100.834 42.625C101.136 42.3353 101.35 42.0193 101.477 41.6731C101.603 41.327 101.668 40.9056 101.668 40.4127V37.1281H102.659H106.964H108.643V42.625H109.416V45.6313H107.897V43.9871H101.886V45.6313H100.359V42.625H100.834ZM106.975 42.625V38.4938H103.275V40.7476C103.275 41.1238 103.229 41.4587 103.141 41.7559C103.049 42.0531 102.904 42.3429 102.701 42.625H106.975ZM112.764 41.4775C112.768 41.7822 112.806 42.0155 112.883 42.1773C112.96 42.3429 113.093 42.4595 113.273 42.5235C113.461 42.5912 113.725 42.625 114.073 42.625H116.285C116.648 42.625 116.924 42.5912 117.104 42.5272C117.287 42.4633 117.413 42.3504 117.482 42.1886C117.555 42.0268 117.589 41.7898 117.589 41.47V39.7204C117.589 39.3818 117.547 39.1297 117.463 38.9529C117.379 38.7798 117.241 38.6594 117.054 38.5954C116.866 38.5277 116.598 38.4938 116.254 38.4938H114.1C113.748 38.4938 113.476 38.5277 113.289 38.5992C113.101 38.6669 112.971 38.7911 112.895 38.9642C112.814 39.1372 112.772 39.3931 112.764 39.7279V41.4775ZM119.258 41.6468C119.258 42.0908 119.216 42.4557 119.135 42.7492C119.051 43.0389 118.917 43.2759 118.726 43.4603C118.538 43.6409 118.278 43.7764 117.953 43.8591C117.628 43.9457 117.222 43.9871 116.732 43.9871H113.671C113.201 43.9871 112.806 43.9457 112.477 43.8554C112.152 43.7688 111.888 43.6296 111.685 43.4415C111.479 43.2496 111.33 43.0088 111.238 42.7191C111.142 42.4256 111.096 42.0682 111.096 41.6468V39.5624C111.096 39.0846 111.142 38.6933 111.234 38.3847C111.326 38.0724 111.471 37.8279 111.67 37.6435C111.869 37.4592 112.129 37.3275 112.451 37.2485C112.772 37.1695 113.178 37.1281 113.671 37.1281H116.732C117.337 37.1281 117.819 37.1996 118.183 37.3388C118.546 37.4817 118.814 37.7301 118.994 38.0837C119.17 38.4374 119.258 38.9303 119.258 39.5624V41.6468ZM122.847 38.4261V39.9085H126.256C126.474 39.9085 126.647 39.8333 126.769 39.6865C126.895 39.536 126.956 39.3442 126.956 39.1071C126.956 38.8964 126.895 38.7271 126.773 38.6067C126.647 38.4863 126.471 38.4261 126.245 38.4261H122.847ZM121.179 43.9871V37.1281H126.203C126.731 37.1281 127.175 37.1845 127.527 37.3011C127.882 37.4103 128.15 37.5946 128.334 37.8467C128.518 38.1025 128.606 38.4336 128.606 38.8475C128.606 39.3667 128.541 39.7242 128.41 39.9236C128.277 40.123 128.055 40.2735 127.741 40.3713C128.135 40.503 128.426 40.6761 128.606 40.8943C128.789 41.1163 128.877 41.4737 128.877 41.9741C128.877 42.4557 128.793 42.8508 128.629 43.1443C128.46 43.4415 128.204 43.656 127.859 43.7876C127.519 43.9231 127.079 43.9871 126.547 43.9871H121.179ZM122.847 41.1238V42.6928H126.195C126.49 42.6928 126.708 42.6702 126.853 42.6213C126.995 42.5724 127.09 42.4934 127.14 42.3805C127.186 42.2676 127.209 42.1058 127.209 41.8951C127.209 41.6995 127.19 41.549 127.148 41.4436C127.106 41.3383 127.018 41.2593 126.88 41.2028C126.746 41.1501 126.536 41.1238 126.252 41.1238H122.858H122.847ZM132.317 43.9871H130.366L134.066 37.1281H136.538L140.207 43.9871H138.248L137.353 42.2601H133.224L132.317 43.9871ZM133.894 40.9658H136.679L135.352 38.4148H135.271L133.894 40.9658ZM141.516 43.9871V37.1281H143.184V39.758H147.485V37.1281H149.165V43.9871H147.485V41.1238H143.184V43.9871H141.516ZM160.101 43.9871V37.1281H157.296L153.045 42.625H152.815V37.1281H151.147V43.9871H154.013L158.203 38.4938H158.432V43.9871H160.101ZM162.236 43.9871V37.1281H169.364V38.4261H163.904V39.9273H169.188V41.1238H163.904V42.6928H169.364V43.9871H162.236ZM194.607 43.9795H191.496C190.846 43.9795 190.341 43.9043 189.973 43.7575C189.606 43.607 189.346 43.3587 189.189 43.0088C189.032 42.6589 188.955 42.1735 188.955 41.5565V39.6075C188.963 38.9416 189.047 38.4261 189.216 38.0724C189.38 37.715 189.652 37.4667 190.031 37.3237C190.413 37.1807 190.953 37.1093 191.657 37.1093H194.404C195.001 37.1093 195.495 37.177 195.885 37.3049C196.275 37.4366 196.581 37.6774 196.796 38.0198C197.01 38.3659 197.117 38.8475 197.117 39.4608H195.388C195.388 39.1034 195.292 38.8475 195.093 38.697C194.898 38.5465 194.573 38.475 194.121 38.475H191.978C191.584 38.475 191.293 38.5014 191.11 38.554C190.926 38.603 190.8 38.7121 190.727 38.8739C190.658 39.0394 190.624 39.3065 190.624 39.6715V41.3684C190.624 41.7108 190.67 41.9741 190.758 42.151C190.846 42.3316 190.987 42.452 191.175 42.5197C191.366 42.5837 191.63 42.6137 191.971 42.6137H194.11C194.442 42.6137 194.703 42.5874 194.879 42.5385C195.058 42.4858 195.189 42.388 195.273 42.2413C195.357 42.0983 195.399 41.8876 195.399 41.6054H197.129C197.125 42.2375 197.056 42.7191 196.918 43.054C196.78 43.3888 196.535 43.6259 196.18 43.7688C195.82 43.908 195.296 43.9795 194.607 43.9795ZM208.034 43.9871V37.1281H205.229L200.978 42.625H200.744V37.1281H199.076V43.9871H201.942L206.132 38.4938H206.365V43.9871H208.034ZM215.633 43.9795H212.526C211.875 43.9795 211.37 43.9043 211.003 43.7575C210.636 43.607 210.375 43.3587 210.219 43.0088C210.062 42.6589 209.985 42.1735 209.985 41.5565V39.6075C209.993 38.9416 210.077 38.4261 210.245 38.0724C210.406 37.715 210.678 37.4667 211.06 37.3237C211.443 37.1807 211.983 37.1093 212.687 37.1093H215.434C216.031 37.1093 216.524 37.177 216.915 37.3049C217.305 37.4366 217.611 37.6774 217.825 38.0198C218.04 38.3659 218.147 38.8475 218.147 39.4608H216.417C216.417 39.1034 216.322 38.8475 216.123 38.697C215.928 38.5465 215.602 38.475 215.151 38.475H213.008C212.614 38.475 212.323 38.5014 212.139 38.554C211.956 38.603 211.829 38.7121 211.757 38.8739C211.688 39.0394 211.653 39.3065 211.653 39.6715V41.3684C211.653 41.7108 211.699 41.9741 211.787 42.151C211.875 42.3316 212.017 42.452 212.204 42.5197C212.396 42.5837 212.66 42.6137 213 42.6137H215.139C215.472 42.6137 215.729 42.5874 215.908 42.5385C216.088 42.4858 216.218 42.388 216.303 42.2413C216.387 42.0983 216.429 41.8876 216.429 41.6054H218.158C218.155 42.2375 218.086 42.7191 217.948 43.054C217.81 43.3888 217.565 43.6259 217.209 43.7688C216.85 43.908 216.326 43.9795 215.633 43.9795ZM219.804 37.1281H227.33V38.4938H224.388V43.9871H222.719V38.4938H219.804V37.1281ZM228.983 43.9871V37.1281H236.112V38.4261H230.651V39.9273H235.94V41.1238H230.651V42.6928H236.112V43.9871H228.983ZM249.148 37.1281H246.045L243.734 42.625H243.631L241.316 37.1281H238.212V43.9871H239.881V38.4938H240.103L242.494 43.9871H244.867L247.258 38.4938H247.48V43.9871H249.148V37.1281ZM251.218 37.1281V43.9871H255.975C256.411 43.9871 256.778 43.957 257.08 43.893C257.383 43.8253 257.635 43.7162 257.83 43.5581C258.029 43.4039 258.178 43.1856 258.278 42.9072C258.377 42.6288 258.427 42.2751 258.427 41.8424C258.427 41.2743 258.335 40.8341 258.152 40.5218C257.972 40.2058 257.7 39.9875 257.341 39.8709C256.981 39.7505 256.514 39.6903 255.932 39.6903H252.887V37.1281H251.218ZM252.89 41.0523H255.634C256.017 41.0523 256.3 41.105 256.483 41.2141C256.667 41.3195 256.759 41.5302 256.759 41.8424C256.759 42.151 256.671 42.3579 256.495 42.4633C256.319 42.5724 256.047 42.625 255.672 42.625H252.89V41.0523ZM261.775 43.9871H260.107V37.1281H261.775V43.9871ZM267.427 43.9871V37.1281H269.084V39.6903H270.067L273.113 37.1281H275.615L271.506 40.345L275.78 43.9871H273.327L270.102 41.0523H269.084V43.9871H267.427ZM278.975 41.4775C278.979 41.7822 279.021 42.0155 279.097 42.1773C279.174 42.3429 279.304 42.4595 279.488 42.5235C279.671 42.5912 279.939 42.625 280.284 42.625H282.495C282.859 42.625 283.134 42.5912 283.318 42.5272C283.498 42.4633 283.624 42.3504 283.697 42.1886C283.766 42.0268 283.8 41.7898 283.8 41.47V39.7204C283.8 39.3818 283.758 39.1297 283.674 38.9529C283.59 38.7798 283.456 38.6594 283.268 38.5954C283.081 38.5277 282.813 38.4938 282.465 38.4938H280.314C279.958 38.4938 279.69 38.5277 279.503 38.5992C279.315 38.6669 279.182 38.7911 279.105 38.9642C279.028 39.1372 278.986 39.3931 278.975 39.7279V41.4775ZM285.468 41.6468C285.468 42.0908 285.43 42.4557 285.346 42.7492C285.265 43.0389 285.128 43.2759 284.94 43.4603C284.749 43.6409 284.493 43.7764 284.167 43.8591C283.842 43.9457 283.433 43.9871 282.947 43.9871H279.882C279.415 43.9871 279.017 43.9457 278.692 43.8554C278.367 43.7688 278.102 43.6296 277.896 43.4415C277.693 43.2496 277.544 43.0088 277.448 42.7191C277.356 42.4256 277.307 42.0682 277.307 41.6468V39.5624C277.307 39.0846 277.353 38.6933 277.444 38.3847C277.536 38.0724 277.682 37.8279 277.881 37.6435C278.083 37.4592 278.34 37.3275 278.665 37.2485C278.983 37.1695 279.388 37.1281 279.882 37.1281H282.947C283.551 37.1281 284.033 37.1996 284.393 37.3388C284.757 37.4817 285.028 37.7301 285.204 38.0837C285.38 38.4374 285.468 38.9303 285.468 39.5624V41.6468ZM287.301 43.9871V37.1281H288.969V39.758H293.27V37.1281H294.95V43.9871H293.27V41.1238H288.969V43.9871H287.301ZM296.63 37.1281H304.156V38.4938H301.214V43.9871H299.546V38.4938H296.63V37.1281ZM305.691 43.9871V37.1281H310.443C310.895 37.1281 311.273 37.1732 311.576 37.2635C311.886 37.3501 312.134 37.4893 312.329 37.6774C312.521 37.8655 312.666 38.1101 312.758 38.4148C312.85 38.7158 312.896 39.0883 312.896 39.5323C312.892 40.1117 312.808 40.5783 312.639 40.9357C312.475 41.2931 312.215 41.5527 311.859 41.7183C311.503 41.8801 311.036 41.9628 310.462 41.9628H307.359V43.9871H305.691ZM307.359 40.5971H310.145C310.42 40.5971 310.634 40.5632 310.795 40.488C310.956 40.4127 311.067 40.2998 311.132 40.1456C311.197 39.9913 311.228 39.7881 311.228 39.5323C311.228 39.1711 311.151 38.9077 310.994 38.7422C310.845 38.5766 310.558 38.4938 310.145 38.4938H307.359V40.5971ZM316.213 41.4775C316.217 41.7822 316.259 42.0155 316.336 42.1773C316.412 42.3429 316.542 42.4595 316.726 42.5235C316.91 42.5912 317.178 42.625 317.522 42.625H319.734C320.097 42.625 320.373 42.5912 320.556 42.5272C320.736 42.4633 320.862 42.3504 320.935 42.1886C321.004 42.0268 321.038 41.7898 321.038 41.47V39.7204C321.038 39.3818 320.996 39.1297 320.912 38.9529C320.828 38.7798 320.694 38.6594 320.506 38.5954C320.319 38.5277 320.051 38.4938 319.703 38.4938H317.553C317.197 38.4938 316.929 38.5277 316.741 38.5992C316.554 38.6669 316.42 38.7911 316.343 38.9642C316.267 39.1372 316.225 39.3931 316.213 39.7279V41.4775ZM322.707 41.6468C322.707 42.0908 322.668 42.4557 322.584 42.7492C322.504 43.0389 322.366 43.2759 322.179 43.4603C321.987 43.6409 321.731 43.7764 321.406 43.8591C321.08 43.9457 320.671 43.9871 320.185 43.9871H317.12C316.653 43.9871 316.255 43.9457 315.93 43.8554C315.605 43.7688 315.341 43.6296 315.134 43.4415C314.931 43.2496 314.782 43.0088 314.687 42.7191C314.595 42.4256 314.545 42.0682 314.545 41.6468V39.5624C314.545 39.0846 314.591 38.6933 314.683 38.3847C314.775 38.0724 314.92 37.8279 315.119 37.6435C315.322 37.4592 315.578 37.3275 315.903 37.2485C316.221 37.1695 316.627 37.1281 317.12 37.1281H320.185C320.79 37.1281 321.272 37.1996 321.631 37.3388C321.995 37.4817 322.267 37.7301 322.443 38.0837C322.619 38.4374 322.707 38.9303 322.707 39.5624V41.6468ZM332.46 37.1281V43.9871H330.792V38.4938H326.87V41.5001C326.87 43.1593 326.212 43.9871 324.888 43.9871H324.187V42.625C324.474 42.625 324.693 42.5837 324.834 42.5046C324.976 42.4256 325.075 42.2939 325.125 42.1133C325.178 41.929 325.201 41.6618 325.201 41.3119V37.1281H326.479H330.78H332.46ZM340.614 38.4261V40.5181H337.178C336.83 40.5181 336.577 40.439 336.417 40.2697C336.26 40.1042 336.176 39.8408 336.172 39.4721C336.172 39.0996 336.241 38.8325 336.378 38.6669C336.516 38.5051 336.765 38.4261 337.128 38.4261H340.614ZM342.282 37.1281H336.987C336.466 37.1281 336.022 37.1996 335.663 37.3388C335.299 37.4742 335.016 37.7225 334.81 38.08C334.607 38.4374 334.503 38.9265 334.503 39.5436C334.503 39.8822 334.576 40.1945 334.721 40.488C334.863 40.7814 335.054 41.0222 335.288 41.2179C335.521 41.4098 335.774 41.5377 336.042 41.5979L334.002 43.9871H336.172L337.844 41.8161H340.614V43.9871H342.282V37.1281ZM182.29 43.355C182.209 43.4603 182.026 43.592 181.739 43.75C181.452 43.908 181.039 43.9871 180.499 43.9871H177.182C176.466 43.9871 175.877 43.7876 175.418 43.3888C174.958 42.9862 174.729 42.3955 174.729 41.6167C174.729 41.2216 174.805 40.8943 174.962 40.6347C175.115 40.3788 175.295 40.187 175.502 40.0515C175.705 39.9198 175.888 39.8295 176.053 39.7806C176.214 39.7317 176.324 39.6978 176.382 39.679C176.382 39.6865 176.34 39.6564 176.252 39.5887C176.168 39.521 176.091 39.4194 176.026 39.284C175.961 39.1485 175.927 38.9642 175.927 38.7309C175.927 38.317 176.015 37.9897 176.191 37.7564C176.367 37.5231 176.611 37.3613 176.921 37.271C177.231 37.1845 177.606 37.1394 178.046 37.1394H180.48C181.153 37.1394 181.666 37.2635 182.022 37.5156C182.374 37.7639 182.6 38.0311 182.699 38.3208C182.799 38.6067 182.848 38.855 182.848 39.0657L182.841 39.1147H181.173C181.173 38.9378 181.092 38.7911 180.935 38.6782C180.775 38.5616 180.53 38.5051 180.197 38.5051H178.418C178.127 38.5051 177.92 38.5315 177.801 38.5879C177.683 38.6406 177.625 38.761 177.625 38.9491C177.625 39.1109 177.698 39.2463 177.844 39.363C177.989 39.4758 178.111 39.5549 178.211 39.6L181.666 41.5151C181.685 41.4963 181.712 41.3909 181.75 41.2028C181.785 41.0185 181.812 40.6874 181.827 40.2133H183.495C183.495 40.8492 183.442 41.327 183.334 41.6506C183.231 41.9741 183.143 42.1773 183.07 42.2676L184.138 42.8809L183.415 43.9682L182.29 43.355ZM177.384 40.6272C177.224 40.6272 177.025 40.6911 176.78 40.8191C176.539 40.9432 176.42 41.2103 176.42 41.6167C176.42 41.929 176.516 42.1698 176.707 42.3466C176.898 42.5197 177.254 42.6062 177.767 42.6062L179.474 42.6137C179.898 42.6137 180.197 42.5912 180.369 42.546C180.537 42.4971 180.637 42.4557 180.66 42.4256L177.384 40.6272Z" fill="#2B2A29"/>
<path d="M346.966 7.75821V2.27252H349.438C349.935 2.27252 350.314 2.32143 350.57 2.41926C350.83 2.51708 351.037 2.69392 351.19 2.94224C351.343 3.19057 351.42 3.46523 351.42 3.76622C351.42 4.15752 351.293 4.48486 351.037 4.75199C350.781 5.01913 350.387 5.18844 349.851 5.25993C350.05 5.35023 350.195 5.44429 350.299 5.53459C350.513 5.72647 350.716 5.97103 350.907 6.26451L351.871 7.75821H350.949L350.214 6.61442C350 6.28332 349.82 6.03123 349.683 5.85816C349.541 5.68509 349.419 5.56092 349.308 5.4932C349.197 5.42171 349.086 5.3728 348.971 5.34646C348.887 5.33141 348.753 5.32013 348.561 5.32013H347.708V7.75821H346.966ZM347.708 4.69179H349.292C349.629 4.69179 349.889 4.65793 350.08 4.59021C350.268 4.52248 350.413 4.41337 350.509 4.25911C350.609 4.10861 350.658 3.94682 350.658 3.76999C350.658 3.51038 350.563 3.29591 350.371 3.1266C350.184 2.96105 349.882 2.87828 349.468 2.87828H347.708V4.69179Z" fill="#2B2A29"/>
<path fill-rule="evenodd" clip-rule="evenodd" d="M345.056 5.21854C345.056 2.98739 346.897 1.17764 349.166 1.17764C351.439 1.17764 353.275 2.98739 353.275 5.21854C353.275 7.44969 351.439 9.25944 349.166 9.25944C346.897 9.25944 345.056 7.44969 345.056 5.21854ZM353.991 5.21854C353.991 2.59986 351.833 0.47406 349.166 0.47406C346.503 0.47406 344.341 2.59986 344.341 5.21854C344.341 7.84098 346.503 9.96302 349.166 9.96302C351.833 9.96302 353.991 7.84098 353.991 5.21854Z" fill="#2B2A29"/>
<path fill-rule="evenodd" clip-rule="evenodd" d="M4.68073 0H42.1066C44.6779 0 46.7824 2.06936 46.7824 4.59774V41.3985C46.7824 43.9306 44.6779 46 42.1066 46H4.68073C2.10939 46 0.00488281 43.9306 0.00488281 41.3985V4.59774C0.00488281 2.06936 2.10939 0 4.68073 0Z" fill="#AD272F" fill-opacity="0.968627"/>
<path fill-rule="evenodd" clip-rule="evenodd" d="M43.0552 18.0825C37.7633 18.1013 34.442 18.0975 33.4433 18.0825C31.5798 18.0524 29.7049 16.6979 29.6666 14.8693C29.6398 14.7075 29.6475 14.6323 29.6475 14.4743C29.659 8.30381 29.6513 4.70312 29.6513 3.6722C29.6513 2.85575 30.3898 2.47197 31.1819 2.43059C32.0007 2.39296 32.8808 2.72406 32.8808 3.6421C32.8808 8.52579 32.8808 11.3777 32.8808 12.2055C32.8808 13.5111 33.7417 14.5194 34.9623 14.7151C35.1077 14.7376 35.2264 14.7414 35.3718 14.7414H43.1699C44.0653 14.7527 44.4709 15.5466 44.4709 16.363C44.4709 17.2058 44.0309 18.0712 43.0552 18.0825Z" fill="white"/>
<path fill-rule="evenodd" clip-rule="evenodd" d="M37.2045 12.5629C37.1892 12.5629 37.1624 12.5591 37.1279 12.5516C35.6127 12.4199 34.6484 11.3175 34.6944 9.60185V9.46263L34.6982 8.31132L34.6944 8.17963C34.6982 6.60315 34.6982 5.61739 34.6982 4.99282V4.96648V4.9138V4.91004V4.90252C34.6982 4.75954 34.6829 4.59776 34.702 4.46231C34.7058 3.92051 34.7097 3.86031 34.7173 3.74367C34.8015 2.11829 37.8205 1.85868 37.8741 3.97695C37.9315 6.09522 37.9123 7.20891 37.9123 7.20891C37.9123 7.20891 37.9238 7.38575 37.9238 7.57011C37.9162 8.04042 38.0118 8.87569 38.9684 9.31966C39.3664 9.50402 39.9786 9.47016 40.6903 9.47768C41.138 9.48145 41.8612 9.47392 42.5384 9.47392C42.9019 9.47392 43.342 9.44006 43.6596 9.59056C44.134 9.81631 44.4325 10.3092 44.4784 10.7757C44.5779 11.7465 44.0958 12.5667 43.1813 12.5667L42.5346 12.5704C40.7515 12.5704 39.0258 12.5704 37.258 12.5667C37.2389 12.5667 37.2236 12.5629 37.2045 12.5629Z" fill="white"/>
<path fill-rule="evenodd" clip-rule="evenodd" d="M26.4257 23.0151C25.9627 22.7479 25.4997 22.3754 25.1018 21.8675C24.2753 20.8817 23.797 19.6251 23.8008 18.2894L23.8391 3.70228C23.8314 2.8181 24.8378 2.44185 25.603 2.43433C26.7012 2.45314 27.39 2.95355 27.39 3.80387C27.39 10.3957 27.39 14.463 27.39 16.0131C27.39 18.169 28.9702 20.3098 31.1092 20.3061C38.7199 20.3362 42.5271 20.2384 43.235 20.3475C43.8549 20.4265 44.2375 20.9118 44.3829 21.5025C44.4441 21.6756 44.4748 21.8788 44.4671 22.1234C44.4594 22.3115 44.4403 22.4808 44.3982 22.6313C44.249 23.3273 43.7975 23.9105 43.0705 23.9143L29.6246 23.9068C28.4116 23.9068 27.3249 23.5757 26.4257 23.0151Z" fill="white"/>
<path fill-rule="evenodd" clip-rule="evenodd" d="M3.61653 28.0191C8.90842 28.0003 12.2297 28.0041 13.2284 28.0191C15.0957 28.0492 16.9668 29.4037 17.005 31.2323C17.0318 31.3903 17.0242 31.4693 17.0242 31.6274C17.0127 37.7978 17.0204 41.3985 17.0204 42.4294C17.0204 43.2459 16.2857 43.6297 15.4898 43.671C14.671 43.7087 13.7909 43.3776 13.7909 42.4558C13.7909 37.5758 13.7909 34.7239 13.7909 33.8961C13.7909 32.5868 12.9299 31.5822 11.7093 31.3866C11.5639 31.364 11.4453 31.3602 11.2999 31.3602H3.50173C2.60636 31.3489 2.20459 30.5551 2.20459 29.7386C2.20459 28.8958 2.6408 28.0304 3.61653 28.0191Z" fill="white"/>
<path fill-rule="evenodd" clip-rule="evenodd" d="M9.46748 33.5387C9.48278 33.5387 9.50957 33.5425 9.54401 33.55C11.0593 33.6779 12.0235 34.7841 11.9776 36.4998V36.639L11.9738 37.7903L11.9776 37.922C11.9776 39.4985 11.9738 40.4842 11.9738 41.1088V41.1314V41.1878V41.1991C11.9738 41.3383 11.9891 41.5039 11.9699 41.6393C11.9661 42.1811 11.9623 42.2413 11.9585 42.358C11.8704 43.9833 8.85143 44.243 8.79786 42.1247C8.74047 40.0064 8.7596 38.8927 8.7596 38.8927C8.7596 38.8927 8.74812 38.7159 8.75195 38.5315C8.75577 38.0612 8.66394 37.2259 7.70734 36.782C7.30557 36.5976 6.69335 36.6315 5.98164 36.6239C5.53778 36.6202 4.81077 36.6277 4.1335 36.6277C3.76999 36.6277 3.33378 36.6616 3.01237 36.5111C2.5379 36.2853 2.24326 35.7924 2.19352 35.3259C2.09404 34.3552 2.57616 33.535 3.49067 33.5312H4.13733C5.92042 33.5312 7.64995 33.5312 9.41391 33.535C9.43304 33.535 9.44835 33.5387 9.46748 33.5387Z" fill="white"/>
<path fill-rule="evenodd" clip-rule="evenodd" d="M20.2463 23.0865C20.7092 23.3537 21.1722 23.7262 21.5702 24.2341C22.4005 25.2199 22.875 26.4765 22.8712 27.8122L22.8367 42.3993C22.8405 43.2835 21.8342 43.6597 21.0689 43.6673C19.9708 43.6485 19.2858 43.1481 19.2858 42.2977C19.2858 35.7059 19.2858 31.6386 19.2858 30.0885C19.2858 27.9326 17.7017 25.7918 15.5628 25.7955C7.95208 25.7654 4.14483 25.8633 3.44078 25.7541C2.81707 25.6751 2.43826 25.1898 2.28903 24.5991C2.23164 24.426 2.20103 24.2191 2.20868 23.9783C2.21251 23.7901 2.23546 23.6208 2.27373 23.4703C2.42296 22.7743 2.87447 22.1911 3.60148 22.1873L17.0474 22.1948C18.2604 22.1948 19.3471 22.5259 20.2463 23.0865Z" fill="white"/>
</svg>
