<?xml version="1.0" encoding="utf-8"?>
<!-- Generator: Adobe Illustrator 23.0.3, SVG Export Plug-In . SVG Version: 6.00 Build 0)  -->
<svg version="1.1" id="Слой_1" xmlns="http://www.w3.org/2000/svg" xmlns:xlink="http://www.w3.org/1999/xlink" x="0px" y="0px"
	 viewBox="0 0 383.3 50.6" style="enable-background:new 0 0 383.3 50.6;" xml:space="preserve">
<style type="text/css">
	.st0{fill:none;stroke:#FFFFFF;stroke-width:0.75;}
	.st1{fill:#FFFFFF;}
	.st2{fill-rule:evenodd;clip-rule:evenodd;fill:#CE3333;fill-opacity:0.9686;}
	.st3{fill-rule:evenodd;clip-rule:evenodd;fill:#FCFAFA;}
</style>
<g id="Слой_x0020_1">
	<g id="_461865392">
		<path class="st0" d="M378.3,1.3c2.5,0,4.6,2,4.6,4.4s-2.1,4.4-4.6,4.4c-2.5,0-4.6-2-4.6-4.4S375.8,1.3,378.3,1.3z"/>
		<g>
			<path class="st1" d="M85,34.8H69.7c-3.2,0-5.7-0.4-7.5-1.1c-1.8-0.7-3.1-2-3.9-3.7c-0.8-1.8-1.1-4.2-1.1-7.3V13
				c0-3.3,0.5-5.9,1.3-7.7c0.8-1.8,2.1-3,4-3.7c1.9-0.7,4.6-1,8-1H84c2.9,0,5.4,0.3,7.3,1s3.4,1.9,4.5,3.6c1,1.7,1.6,4.1,1.6,7.2
				h-8.5c0-1.8-0.5-3.1-1.4-3.8c-1-0.8-2.6-1.1-4.8-1.1H72.1c-2,0-3.4,0.1-4.3,0.4c-0.9,0.3-1.5,0.8-1.9,1.6c-0.4,0.8-0.5,2.2-0.5,4
				v8.5c0,1.7,0.2,3,0.7,3.9c0.4,0.9,1.1,1.5,2,1.8c0.9,0.3,2.2,0.5,3.9,0.5h10.5c1.6,0,2.9-0.1,3.8-0.4c0.9-0.3,1.5-0.8,2-1.5
				c0.4-0.7,0.6-1.8,0.6-3.2h8.5c0,3.2-0.4,5.6-1,7.3s-1.9,2.9-3.6,3.6C91,34.5,88.4,34.8,85,34.8z M105.8,34.9h-9.6l18.2-34.3h12.2
				l18.1,34.3h-9.7l-4.4-8.6h-20.3L105.8,34.9z M113.5,19.7h13.7L120.7,7h-0.4L113.5,19.7z M155,7.4v10.5h17.1
				c1.7,0,2.9-0.4,3.6-1.2c0.7-0.8,1-2.2,1.1-4c0-1.9-0.3-3.2-1-4c-0.7-0.8-1.9-1.2-3.7-1.2H155z M185.7,34.9h-8.2v-5.3
				c0-1.7-0.5-2.9-1.5-3.7c-1-0.8-2.7-1.1-5-1.1h-15.9v10.2h-8.2V0.5h26.1c1.9,0,3.6,0.2,5.1,0.5c1.4,0.4,2.7,1,3.8,1.9
				c1,0.9,1.9,2.1,2.5,3.7c0.6,1.6,0.9,3.6,0.9,6s-0.4,4.2-1.3,5.6c-0.9,1.3-2.1,2.5-3.7,3.4c1.5,0.6,2.6,1,3.2,1.3
				c0.6,0.3,1.2,0.9,1.7,1.6c0.5,0.8,0.8,1.8,0.8,3.2V34.9z M202.5,28h14.8c2,0,3.6-0.2,4.6-0.6c1.1-0.4,1.8-1,2.2-1.8
				c0.4-0.8,0.6-2,0.6-3.4v-9c0-2.1-0.5-3.5-1.6-4.5c-1-0.9-3-1.4-5.9-1.4h-14.8V28z M194.3,0.5h26.5c2.2,0,4,0.2,5.5,0.7
				c1.5,0.5,2.8,1.2,3.7,2.2c1,1,1.7,2.3,2.2,3.8c0.5,1.6,0.7,3.5,0.8,5.8v9.1c0,3-0.4,5.4-1.2,7.3c-0.8,1.8-2.1,3.2-3.9,4.1
				c-1.8,0.9-4.1,1.3-7.1,1.3h-26.6V0.5z M247.9,28h14.8c2,0,3.6-0.2,4.6-0.6c1.1-0.4,1.8-1,2.2-1.8c0.4-0.8,0.6-2,0.6-3.4v-9
				c0-2.1-0.5-3.5-1.6-4.5c-1-0.9-3-1.4-5.9-1.4h-14.8V28z M239.7,0.5h26.5c2.1,0,3.9,0.2,5.5,0.7c1.5,0.5,2.8,1.2,3.7,2.2
				c1,1,1.7,2.3,2.2,3.8c0.5,1.6,0.7,3.5,0.8,5.8v9.1c0,3-0.4,5.4-1.2,7.3c-0.8,1.8-2.1,3.2-3.9,4.1c-1.8,0.9-4.1,1.3-7.1,1.3h-26.5
				V0.5z M284.4,34.9V0.5h35.1V7h-26.8v7.5h26v6h-26v7.9h26.8v6.5H284.4z M335.3,0.5h-11.1L340,17.2l-17.7,17.7h12l12.2-13.5
				l12.2,13.5h12.1L353,17.2l15.8-16.7h-11.1L346.5,13L335.3,0.5z"/>
			<path class="st1" d="M58.8,45.6c0,0.3,0.1,0.6,0.1,0.8c0.1,0.2,0.2,0.3,0.4,0.4c0.2,0.1,0.5,0.1,0.9,0.1h2.4c0.4,0,0.7,0,0.9-0.1
				c0.2-0.1,0.3-0.2,0.4-0.4c0.1-0.2,0.1-0.4,0.1-0.8v-1.9c0-0.4-0.1-0.6-0.1-0.8c-0.1-0.2-0.2-0.3-0.5-0.4
				c-0.2-0.1-0.5-0.1-0.9-0.1h-2.3c-0.4,0-0.7,0-0.9,0.1c-0.2,0.1-0.3,0.2-0.4,0.4c-0.1,0.2-0.1,0.5-0.1,0.9V45.6z M65.8,45.8
				c0,0.5,0,0.9-0.1,1.2c-0.1,0.3-0.3,0.6-0.5,0.8s-0.5,0.4-0.8,0.5c-0.4,0.1-0.8,0.1-1.3,0.1h-3.3c-0.5,0-0.9-0.1-1.3-0.1
				c-0.3-0.1-0.6-0.3-0.9-0.5c-0.2-0.2-0.4-0.5-0.5-0.8c-0.1-0.3-0.2-0.7-0.2-1.2v-2.3c0-0.5,0.1-0.9,0.2-1.3
				c0.1-0.3,0.3-0.6,0.5-0.8c0.2-0.2,0.5-0.3,0.9-0.4c0.3-0.1,0.8-0.1,1.3-0.1H63c0.7,0,1.2,0.1,1.6,0.2c0.4,0.2,0.7,0.4,0.9,0.8
				c0.2,0.4,0.3,0.9,0.3,1.6V45.8z M67.9,40.8h7.1v1.4h-5.3v1.6h3.5c0.6,0,1.1,0.1,1.5,0.2c0.4,0.1,0.6,0.4,0.8,0.7
				c0.2,0.3,0.3,0.8,0.3,1.4c0,0.6-0.1,1-0.3,1.3c-0.2,0.3-0.5,0.5-0.8,0.7c-0.4,0.1-0.8,0.2-1.4,0.2h-5.3V40.8z M69.7,45.2V47h3.1
				c0.3,0,0.6,0,0.7-0.1c0.2-0.1,0.3-0.1,0.3-0.3s0.1-0.3,0.1-0.5s0-0.4-0.1-0.5c-0.1-0.1-0.1-0.2-0.3-0.3c-0.1-0.1-0.4-0.1-0.7-0.1
				H69.7z M79.6,45.6c0,0.3,0.1,0.6,0.1,0.8c0.1,0.2,0.2,0.3,0.4,0.4c0.2,0.1,0.5,0.1,0.9,0.1h2.4c0.4,0,0.7,0,0.9-0.1
				c0.2-0.1,0.3-0.2,0.4-0.4c0.1-0.2,0.1-0.4,0.1-0.8v-1.9c0-0.4,0-0.6-0.1-0.8c-0.1-0.2-0.2-0.3-0.4-0.4c-0.2-0.1-0.5-0.1-0.9-0.1
				h-2.3c-0.4,0-0.7,0-0.9,0.1c-0.2,0.1-0.3,0.2-0.4,0.4c-0.1,0.2-0.1,0.5-0.1,0.9V45.6z M86.7,45.8c0,0.5-0.1,0.9-0.1,1.2
				c-0.1,0.3-0.2,0.6-0.4,0.8c-0.2,0.2-0.5,0.4-0.9,0.5c-0.3,0.1-0.8,0.1-1.3,0.1h-3.3c-0.5,0-0.9-0.1-1.3-0.1
				c-0.3-0.1-0.6-0.3-0.9-0.5c-0.2-0.2-0.4-0.5-0.5-0.8c-0.1-0.3-0.1-0.7-0.1-1.2v-2.3c0-0.5,0-0.9,0.1-1.3c0.1-0.3,0.3-0.6,0.5-0.8
				c0.2-0.2,0.5-0.3,0.8-0.4c0.4-0.1,0.8-0.1,1.3-0.1h3.3c0.7,0,1.2,0.1,1.6,0.2c0.4,0.2,0.7,0.4,0.9,0.8c0.2,0.4,0.3,0.9,0.3,1.6
				V45.8z M88.7,48.4v-7.5h5.1c0.5,0,0.9,0.1,1.2,0.1c0.3,0.1,0.6,0.3,0.8,0.5c0.2,0.2,0.3,0.5,0.5,0.8c0.1,0.3,0.1,0.7,0.1,1.2
				c0,0.7-0.1,1.2-0.3,1.6c-0.2,0.4-0.5,0.7-0.9,0.9c-0.4,0.2-0.9,0.3-1.5,0.3h-3.4v2.2H88.7z M90.5,44.7h3c0.3,0,0.5-0.1,0.7-0.1
				c0.2-0.1,0.3-0.2,0.4-0.4s0.1-0.4,0.1-0.7c0-0.4-0.1-0.7-0.3-0.9c-0.2-0.2-0.5-0.3-0.9-0.3h-3V44.7z M104.7,40.8h2.2l-3.5,5.7
				c-0.3,0.5-0.5,0.8-0.7,1c-0.2,0.2-0.4,0.4-0.5,0.5c-0.2,0.1-0.4,0.2-0.6,0.3c-0.2,0-0.5,0.1-0.9,0.1h-0.7V47h0.3
				c0.7,0,1-0.2,1-0.5c0-0.1,0-0.2-0.1-0.4l-3.5-5.3h2.1l2.5,4.3L104.7,40.8z M108.9,46.9c0.3-0.3,0.5-0.7,0.7-1
				c0.1-0.4,0.2-0.8,0.2-1.4v-3.6h1.1h4.6h1.8v6h0.9v3.3h-1.6v-1.8H110v1.8h-1.6v-3.3H108.9z M115.5,46.9v-4.5h-4v2.5
				c0,0.4-0.1,0.8-0.1,1.1c-0.1,0.3-0.3,0.7-0.5,1H115.5z M121.8,45.6c0,0.3,0.1,0.6,0.1,0.8c0.1,0.2,0.2,0.3,0.4,0.4
				c0.2,0.1,0.5,0.1,0.9,0.1h2.4c0.4,0,0.7,0,0.9-0.1c0.2-0.1,0.3-0.2,0.4-0.4s0.1-0.4,0.1-0.8v-1.9c0-0.4,0-0.6-0.1-0.8
				c-0.1-0.2-0.2-0.3-0.4-0.4c-0.2-0.1-0.5-0.1-0.9-0.1h-2.3c-0.4,0-0.7,0-0.9,0.1c-0.2,0.1-0.3,0.2-0.4,0.4
				c-0.1,0.2-0.1,0.5-0.1,0.9V45.6z M128.8,45.8c0,0.5-0.1,0.9-0.1,1.2s-0.2,0.6-0.4,0.8c-0.2,0.2-0.5,0.4-0.9,0.5
				c-0.3,0.1-0.8,0.1-1.3,0.1h-3.3c-0.5,0-0.9-0.1-1.3-0.1c-0.3-0.1-0.6-0.3-0.9-0.5c-0.2-0.2-0.4-0.5-0.5-0.8
				c-0.1-0.3-0.1-0.7-0.1-1.2v-2.3c0-0.5,0-0.9,0.1-1.3c0.1-0.3,0.3-0.6,0.5-0.8c0.2-0.2,0.5-0.3,0.8-0.4c0.4-0.1,0.8-0.1,1.3-0.1
				h3.3c0.7,0,1.2,0.1,1.6,0.2c0.4,0.2,0.7,0.4,0.9,0.8c0.2,0.4,0.3,0.9,0.3,1.6V45.8z M132.7,42.3v1.6h3.7c0.3,0,0.4-0.1,0.6-0.3
				c0.1-0.2,0.2-0.4,0.2-0.6c0-0.2-0.1-0.4-0.2-0.6c-0.1-0.1-0.3-0.2-0.6-0.2H132.7z M130.9,48.4v-7.5h5.4c0.6,0,1,0.1,1.4,0.2
				c0.4,0.1,0.7,0.3,0.9,0.6c0.2,0.3,0.3,0.7,0.3,1.1c0,0.6-0.1,1-0.2,1.2c-0.1,0.2-0.4,0.4-0.7,0.5c0.4,0.1,0.7,0.3,0.9,0.6
				c0.2,0.3,0.3,0.6,0.3,1.2c0,0.5-0.1,1-0.3,1.3c-0.2,0.3-0.5,0.6-0.8,0.7c-0.4,0.1-0.9,0.2-1.4,0.2H130.9z M132.7,45.2V47h3.6
				c0.3,0,0.6,0,0.7-0.1c0.2-0.1,0.3-0.1,0.3-0.3c0.1-0.1,0.1-0.3,0.1-0.5s0-0.4-0.1-0.5c0-0.1-0.1-0.2-0.3-0.3
				c-0.1-0.1-0.4-0.1-0.7-0.1H132.7L132.7,45.2z M142.9,48.4h-2.1l4-7.5h2.7l4,7.5h-2.1l-1-1.9h-4.5L142.9,48.4z M144.6,45.1h3
				l-1.4-2.8h-0.1L144.6,45.1z M152.8,48.4v-7.5h1.8v2.9h4.6v-2.9h1.8v7.5h-1.8v-3.1h-4.6v3.1H152.8z M172.9,48.4v-7.5h-3l-4.6,6
				H165v-6h-1.8v7.5h3.1l4.5-6h0.3v6H172.9z M175.2,48.4v-7.5h7.7v1.4H177v1.7h5.7v1.3H177V47h5.9v1.4H175.2z M210.2,48.4h-3.3
				c-0.7,0-1.3-0.1-1.7-0.3s-0.7-0.5-0.8-0.8c-0.2-0.4-0.3-0.9-0.3-1.6v-2.2c0-0.7,0.1-1.3,0.3-1.7c0.2-0.4,0.5-0.7,0.9-0.8
				c0.4-0.2,1-0.3,1.8-0.3h2.9c0.7,0,1.2,0.1,1.6,0.2c0.4,0.1,0.7,0.4,1,0.8c0.3,0.4,0.4,0.9,0.4,1.6H211c0-0.4-0.1-0.7-0.3-0.9
				c-0.2-0.2-0.6-0.3-1-0.3h-2.3c-0.4,0-0.7,0-0.9,0.1s-0.3,0.2-0.4,0.4c-0.1,0.2-0.1,0.5-0.1,0.9v1.8c0,0.4,0.1,0.7,0.1,0.9
				c0.1,0.2,0.3,0.3,0.5,0.4c0.2,0.1,0.5,0.1,0.9,0.1h2.3c0.4,0,0.7,0,0.8-0.1c0.2-0.1,0.3-0.2,0.4-0.3c0.1-0.1,0.1-0.4,0.1-0.7h1.9
				c0,0.7-0.1,1.2-0.2,1.6c-0.1,0.4-0.4,0.6-0.8,0.8C211.5,48.3,210.9,48.4,210.2,48.4z M224.7,48.4v-7.5h-3l-4.6,6h-0.3v-6H215v7.5
				h3.1l4.5-6h0.3v6H224.7z M232.9,48.4h-3.3c-0.7,0-1.2-0.1-1.6-0.3s-0.7-0.5-0.9-0.8c-0.2-0.4-0.3-0.9-0.3-1.6v-2.2
				c0-0.7,0.1-1.3,0.3-1.7c0.2-0.4,0.5-0.7,0.9-0.8c0.4-0.2,1-0.3,1.8-0.3h3c0.6,0,1.2,0.1,1.6,0.2s0.8,0.4,1,0.8
				c0.2,0.4,0.3,0.9,0.3,1.6h-1.9c0-0.4-0.1-0.7-0.3-0.9s-0.6-0.3-1-0.3h-2.3c-0.4,0-0.7,0-0.9,0.1s-0.3,0.2-0.4,0.4
				c-0.1,0.2-0.1,0.5-0.1,0.9v1.8c0,0.4,0,0.7,0.1,0.9c0.1,0.2,0.3,0.3,0.5,0.4c0.2,0.1,0.5,0.1,0.9,0.1h2.3c0.4,0,0.7,0,0.9-0.1
				s0.3-0.2,0.4-0.3c0.1-0.1,0.1-0.4,0.1-0.7h1.8c0,0.7-0.1,1.2-0.2,1.6c-0.1,0.4-0.4,0.6-0.8,0.8C234.2,48.3,233.7,48.4,232.9,48.4
				z M237.4,40.8h8.1v1.5h-3.2v6h-1.8v-6h-3.1V40.8z M247.3,48.4v-7.5h7.7v1.4h-5.9v1.7h5.7v1.3h-5.7V47h5.9v1.4H247.3z M269.1,40.8
				h-3.3l-2.5,6h-0.1l-2.5-6h-3.3v7.5h1.8v-6h0.3l2.6,6h2.6l2.6-6h0.3v6h1.8V40.8z M271.3,40.8v7.5h5.2c0.5,0,0.9,0,1.2-0.1
				c0.3-0.1,0.6-0.2,0.8-0.4c0.2-0.2,0.4-0.4,0.5-0.7c0.1-0.3,0.2-0.7,0.2-1.2c0-0.6-0.1-1.1-0.3-1.4c-0.2-0.4-0.5-0.6-0.9-0.7
				c-0.4-0.1-0.9-0.2-1.5-0.2h-3.3v-2.8H271.3z M273.1,45.2h3c0.4,0,0.7,0.1,0.9,0.2c0.2,0.1,0.3,0.4,0.3,0.7s-0.1,0.6-0.3,0.7
				c-0.2,0.1-0.5,0.2-0.9,0.2h-3V45.2z M282.8,48.4h-1.8v-7.5h1.8V48.4z M288.9,48.4v-7.5h1.8v2.8h1.1l3.3-2.8h2.7l-4.5,3.5l4.6,4
				h-2.6l-3.5-3.2h-1.1v3.2H288.9z M301.3,45.6c0,0.3,0.1,0.6,0.1,0.8c0.1,0.2,0.2,0.3,0.4,0.4c0.2,0.1,0.5,0.1,0.9,0.1h2.4
				c0.4,0,0.7,0,0.9-0.1c0.2-0.1,0.3-0.2,0.4-0.4c0.1-0.2,0.1-0.4,0.1-0.8v-1.9c0-0.4-0.1-0.6-0.1-0.8c-0.1-0.2-0.2-0.3-0.4-0.4
				c-0.2-0.1-0.5-0.1-0.9-0.1h-2.3c-0.4,0-0.7,0-0.9,0.1c-0.2,0.1-0.3,0.2-0.4,0.4c-0.1,0.2-0.1,0.5-0.1,0.9V45.6z M308.3,45.8
				c0,0.5,0,0.9-0.1,1.2c-0.1,0.3-0.3,0.6-0.5,0.8s-0.5,0.4-0.8,0.5c-0.4,0.1-0.8,0.1-1.3,0.1h-3.3c-0.5,0-0.9-0.1-1.3-0.1
				c-0.3-0.1-0.6-0.3-0.9-0.5c-0.2-0.2-0.4-0.5-0.5-0.8c-0.1-0.3-0.2-0.7-0.2-1.2v-2.3c0-0.5,0.1-0.9,0.2-1.3
				c0.1-0.3,0.3-0.6,0.5-0.8c0.2-0.2,0.5-0.3,0.9-0.4c0.3-0.1,0.8-0.1,1.3-0.1h3.3c0.7,0,1.2,0.1,1.6,0.2c0.4,0.2,0.7,0.4,0.9,0.8
				c0.2,0.4,0.3,0.9,0.3,1.6V45.8z M310.3,48.4v-7.5h1.8v2.9h4.6v-2.9h1.8v7.5h-1.8v-3.1h-4.6v3.1H310.3z M320.4,40.8h8.1v1.5h-3.2
				v6h-1.8v-6h-3.1V40.8z M330.2,48.4v-7.5h5.1c0.5,0,0.9,0.1,1.2,0.1c0.3,0.1,0.6,0.3,0.8,0.5c0.2,0.2,0.4,0.5,0.5,0.8
				c0.1,0.3,0.2,0.7,0.2,1.2c0,0.7-0.1,1.2-0.3,1.6c-0.2,0.4-0.5,0.7-0.9,0.9s-0.9,0.3-1.5,0.3H332v2.2H330.2z M332,44.7h3
				c0.3,0,0.5-0.1,0.7-0.1c0.2-0.1,0.3-0.2,0.3-0.4c0.1-0.2,0.1-0.4,0.1-0.7c0-0.4-0.1-0.7-0.3-0.9c-0.2-0.2-0.5-0.3-0.9-0.3h-3
				V44.7z M341.5,45.6c0,0.3,0.1,0.6,0.1,0.8c0.1,0.2,0.2,0.3,0.4,0.4c0.2,0.1,0.5,0.1,0.9,0.1h2.4c0.4,0,0.7,0,0.9-0.1
				c0.2-0.1,0.3-0.2,0.4-0.4c0.1-0.2,0.1-0.4,0.1-0.8v-1.9c0-0.4-0.1-0.6-0.1-0.8c-0.1-0.2-0.2-0.3-0.4-0.4
				c-0.2-0.1-0.5-0.1-0.9-0.1H343c-0.4,0-0.7,0-0.9,0.1c-0.2,0.1-0.3,0.2-0.4,0.4c-0.1,0.2-0.1,0.5-0.1,0.9V45.6z M348.5,45.8
				c0,0.5,0,0.9-0.1,1.2c-0.1,0.3-0.3,0.6-0.5,0.8s-0.5,0.4-0.8,0.5c-0.4,0.1-0.8,0.1-1.3,0.1h-3.3c-0.5,0-0.9-0.1-1.3-0.1
				c-0.3-0.1-0.6-0.3-0.9-0.5c-0.2-0.2-0.4-0.5-0.5-0.8c-0.1-0.3-0.2-0.7-0.2-1.2v-2.3c0-0.5,0.1-0.9,0.2-1.3
				c0.1-0.3,0.3-0.6,0.5-0.8c0.2-0.2,0.5-0.3,0.9-0.4c0.3-0.1,0.8-0.1,1.3-0.1h3.3c0.7,0,1.2,0.1,1.6,0.2c0.4,0.2,0.7,0.4,0.9,0.8
				c0.2,0.4,0.3,0.9,0.3,1.6V45.8z M359.1,40.8v7.5h-1.8v-6h-4.2v3.3c0,1.8-0.7,2.7-2.1,2.7h-0.8v-1.5c0.3,0,0.5,0,0.7-0.1
				c0.2-0.1,0.3-0.2,0.3-0.4c0.1-0.2,0.1-0.5,0.1-0.9v-4.6h1.4h4.6H359.1z M367.9,42.3v2.3h-3.7c-0.4,0-0.7-0.1-0.8-0.3
				c-0.2-0.2-0.3-0.5-0.3-0.9c0-0.4,0.1-0.7,0.2-0.9c0.2-0.2,0.4-0.3,0.8-0.3H367.9z M369.7,40.8H364c-0.6,0-1,0.1-1.4,0.2
				c-0.4,0.2-0.7,0.4-0.9,0.8c-0.2,0.4-0.3,0.9-0.3,1.6c0,0.4,0.1,0.7,0.2,1c0.2,0.3,0.4,0.6,0.6,0.8c0.3,0.2,0.5,0.3,0.8,0.4
				l-2.2,2.6h2.4l1.8-2.4h3v2.4h1.8V40.8z M196.9,47.7c-0.1,0.1-0.3,0.3-0.6,0.5s-0.8,0.3-1.4,0.3h-3.6c-0.8,0-1.4-0.2-1.9-0.7
				c-0.5-0.5-0.7-1.1-0.7-2c0-0.4,0.1-0.8,0.2-1.1c0.2-0.3,0.4-0.5,0.6-0.7c0.2-0.1,0.4-0.2,0.6-0.3c0.2-0.1,0.3-0.1,0.3-0.1
				c0,0,0,0-0.1-0.1c-0.1-0.1-0.2-0.2-0.3-0.3c-0.1-0.2-0.1-0.4-0.1-0.6c0-0.5,0.1-0.8,0.3-1.1c0.2-0.3,0.5-0.4,0.8-0.5
				c0.3-0.1,0.7-0.1,1.2-0.1h2.6c0.7,0,1.3,0.1,1.6,0.4c0.4,0.3,0.7,0.6,0.7,0.9c0.1,0.3,0.2,0.6,0.2,0.8V43h-1.8
				c0-0.2-0.1-0.3-0.3-0.5c-0.2-0.1-0.4-0.2-0.8-0.2h-1.9c-0.3,0-0.5,0-0.7,0.1c-0.1,0.1-0.2,0.2-0.2,0.4c0,0.2,0.1,0.3,0.2,0.5
				c0.2,0.1,0.3,0.2,0.4,0.3l3.7,2.1c0,0,0.1-0.1,0.1-0.3s0.1-0.6,0.1-1.1h1.8c0,0.7-0.1,1.2-0.2,1.6c-0.1,0.4-0.2,0.6-0.3,0.7
				l1.2,0.7l-0.8,1.2L196.9,47.7z M191.6,44.7c-0.2,0-0.4,0.1-0.7,0.2c-0.3,0.1-0.4,0.4-0.4,0.9c0,0.3,0.1,0.6,0.3,0.8
				s0.6,0.3,1.1,0.3l1.8,0c0.5,0,0.8,0,1-0.1c0.2-0.1,0.3-0.1,0.3-0.1L191.6,44.7z"/>
			<path class="st2" d="M5,0h40.5c2.8,0,5.1,2.3,5.1,5.1v40.5c0,2.8-2.3,5.1-5.1,5.1H5c-2.8,0-5-2.3-5-5.1V5.1C0,2.3,2.3,0,5,0z"/>
			<path class="st3" d="M19.5,26.2c0,0,5.6-0.2,5.6,6.5c0,6.7,0,14.4,0,14.4c-0.3,2.6-3.4,2.5-3.5-0.2c-0.1-4,0-12.6,0-12.6
				s-0.2-4.5-4.1-4.6c-4,0-12.5-0.1-12.5,0c0,0-2.1,0.2-2.1-1.7c0.1-1.3,0.7-1.8,3.3-1.8C10.6,26.2,17.8,26.2,19.5,26.2z"/>
			<path class="st3" d="M4.8,31.8l10.4,0.1c0,0,3.9,0.2,3.9,5.6c0,1-0.1,5.4,0,8.7c0.1,3.5-3.6,3.5-3.6-0.1c0.1-4.1,0-7.6,0-7.6
				s-0.1-3.1-3.5-3.2c-3.4,0-5.8,0.1-7.5,0c-0.9-0.1-1.9-0.8-1.9-1.7C2.6,32.9,2.8,32.1,4.8,31.8z"/>
			<path class="st3" d="M10.7,37.7c0,0,2.8,0.2,2.8,4.8c0,4.6,0,4.6,0,4.9c-0.1,1.8-3.3,2.1-3.5-0.3c-0.1-2.4,0-3.6,0-3.6
				s0.3-2.5-3.1-2.5c-1.1,0-3.8,0.4-4.1-1.4c-0.3-1.3,0.7-2,2.1-2.1C7,37.5,9.8,37.7,10.7,37.7z"/>
			<path class="st3" d="M31.3,26c0,0-5.5,0.2-5.6-6.5c0-6.7,0-14.4,0-14.4c0.3-2.6,3.4-2.5,3.5,0.2c0.1,4,0,12.6,0,12.6
				s0.2,4.5,4.1,4.6c4,0,12.5,0.1,12.5,0c0,0,2.1-0.2,2.1,1.7c-0.1,1.3-0.7,1.8-3.3,1.8C40.2,26,33,26,31.3,26z"/>
			<path class="st3" d="M46,20.4l-10.4-0.1c0,0-3.9-0.2-3.9-5.6c0-1,0.1-5.4,0-8.7c-0.1-3.5,3.7-3.5,3.6,0.1c-0.1,4.1,0,7.6,0,7.6
				s0.1,3.1,3.5,3.1c3.4,0,5.8-0.1,7.5,0c0.9,0,1.9,0.8,1.9,1.7C48.2,19.2,48,20.1,46,20.4z"/>
			<path class="st3" d="M40.1,14.5c0,0-2.7-0.2-2.7-4.8s0-4.6,0-4.9c0.1-1.8,3.3-2.1,3.5,0.3c0.1,2.4,0,3.6,0,3.6s-0.3,2.5,3.1,2.5
				c1.1,0,3.8-0.4,4.1,1.4c0.3,1.3-0.7,2-2.1,2.1C43.8,14.7,41,14.5,40.1,14.5z"/>
		</g>
		<path class="st1" d="M376.2,8.6v-6h2.6c0.6,0,1.1,0.1,1.4,0.1c0.3,0.1,0.5,0.3,0.7,0.6c0.2,0.3,0.3,0.6,0.3,0.9
			c0,0.5-0.1,0.8-0.4,1.1c-0.3,0.3-0.7,0.5-1.2,0.5c0.3,0.2,0.5,0.3,0.7,0.5c0.2,0.2,0.4,0.5,0.7,1l0.7,1.2h-1.4l-0.9-1.3
			c-0.3-0.5-0.5-0.8-0.6-0.9c-0.1-0.1-0.3-0.2-0.4-0.3c-0.1-0.1-0.3-0.1-0.6-0.1h-0.2v2.5H376.2z M377.4,5.2h0.9
			c0.6,0,0.9,0,1.1-0.1c0.1,0,0.3-0.1,0.3-0.3c0.1-0.1,0.1-0.3,0.1-0.4c0-0.2-0.1-0.4-0.2-0.5c-0.1-0.1-0.3-0.2-0.5-0.2
			c-0.1,0-0.4,0-0.9,0h-0.9V5.2z"/>
	</g>
</g>
</svg>
