<svg width="22" height="20" viewBox="0 0 22 20" fill="none" xmlns="http://www.w3.org/2000/svg">
<path d="M11.631 0C17.1536 0 21.631 4.47738 21.631 10C21.631 15.5226 17.1536 20 11.631 20C9.56595 20 7.56519 19.3664 5.87742 18.1767L0.58001 18.5991C0.149958 18.6322 -0.13632 18.1723 0.066619 17.8039L2.33139 13.6783C1.87081 12.5129 1.63097 11.2533 1.63097 10C1.63097 4.47738 6.10835 0 11.631 0V0ZM11.631 1.07768C6.70381 1.07768 2.70864 5.07284 2.70864 10C2.70864 11.2005 2.94212 12.3767 3.41225 13.4818C3.48287 13.6325 3.4835 13.8139 3.39762 13.971L1.4891 17.4477L5.98811 17.0889C6.11217 17.08 6.2394 17.113 6.34755 17.1919C7.88455 18.3218 9.72372 18.9223 11.631 18.9223C16.5581 18.9223 20.5533 14.9272 20.5533 10C20.5533 5.07284 16.5581 1.07768 11.631 1.07768Z" fill="white"/>
<path fill-rule="evenodd" clip-rule="evenodd" d="M15.6116 8.76709C16.2923 8.76709 16.8445 9.31929 16.8445 9.99999C16.8445 10.6807 16.2923 11.2329 15.6116 11.2329C14.9309 11.2329 14.3787 10.6807 14.3787 9.99999C14.3787 9.31929 14.9309 8.76709 15.6116 8.76709Z" fill="white"/>
<path fill-rule="evenodd" clip-rule="evenodd" d="M11.6309 8.76709C12.3116 8.76709 12.8638 9.31929 12.8638 9.99999C12.8638 10.6807 12.3116 11.2329 11.6309 11.2329C10.9501 11.2329 10.3979 10.6807 10.3979 9.99999C10.3979 9.31929 10.9501 8.76709 11.6309 8.76709Z" fill="white"/>
<path fill-rule="evenodd" clip-rule="evenodd" d="M7.65049 8.76709C8.33119 8.76709 8.88339 9.31929 8.88339 9.99999C8.88339 10.6807 8.33119 11.2329 7.65049 11.2329C6.96978 11.2329 6.41759 10.6807 6.41759 9.99999C6.41759 9.31929 6.96978 8.76709 7.65049 8.76709Z" fill="white"/>
</svg>
