<svg width="21" height="20" viewBox="0 0 21 20" fill="none" xmlns="http://www.w3.org/2000/svg">
<g clip-path="url(#clip0)">
<path d="M16.1175 9.16672H4.79161C2.14926 9.16672 0 7.10999 0 4.58328C0 2.05673 2.14926 0 4.79161 0H16.1175C18.7598 0 20.9091 2.05673 20.9091 4.58328C20.9091 7.10999 18.7598 9.16672 16.1175 9.16672ZM4.79161 1.25C2.86983 1.25 1.30682 2.74506 1.30682 4.58328C1.30682 6.42166 2.86983 7.91672 4.79161 7.91672H16.1175C18.0393 7.91672 19.6023 6.42166 19.6023 4.58328C19.6023 2.74506 18.0393 1.25 16.1175 1.25H4.79161Z" fill="#1D68D9"/>
<path d="M4.79162 7.39623C3.59121 7.39623 2.61365 6.35987 2.61365 5.08481C2.61365 3.80992 3.59121 2.77356 4.79162 2.77356C5.9922 2.77356 6.96976 3.80992 6.96976 5.08481C6.96976 6.35987 5.9922 7.39623 4.79162 7.39623ZM4.79162 4.16034C4.31162 4.16034 3.92047 4.57459 3.92047 5.08481C3.92047 5.59521 4.31162 6.00945 4.79162 6.00945C5.27179 6.00945 5.66294 5.59521 5.66294 5.08481C5.66294 4.57459 5.27179 4.16034 4.79162 4.16034Z" fill="#1D68D9"/>
<path d="M16.1175 20H4.79161C2.14926 20 0 17.9432 0 15.4167C0 12.89 2.14926 10.8333 4.79161 10.8333H16.1175C18.7598 10.8333 20.9091 12.89 20.9091 15.4167C20.9091 17.9432 18.7598 20 16.1175 20ZM4.79161 12.0833C2.86983 12.0833 1.30682 13.5783 1.30682 15.4167C1.30682 17.2549 2.86983 18.75 4.79161 18.75H16.1175C18.0393 18.75 19.6023 17.2549 19.6023 15.4167C19.6023 13.5783 18.0393 12.0833 16.1175 12.0833H4.79161Z" fill="#1D68D9"/>
<path d="M16.1176 17.5C14.917 17.5 13.9395 16.5658 13.9395 15.4167C13.9395 14.2674 14.917 13.3333 16.1176 13.3333C17.318 13.3333 18.2956 14.2674 18.2956 15.4167C18.2956 16.5658 17.318 17.5 16.1176 17.5ZM16.1176 14.5833C15.6374 14.5833 15.2463 14.9566 15.2463 15.4167C15.2463 15.8766 15.6374 16.25 16.1176 16.25C16.5976 16.25 16.9887 15.8766 16.9887 15.4167C16.9887 14.9566 16.5976 14.5833 16.1176 14.5833Z" fill="#1D68D9"/>
</g>
<defs>
<clipPath id="clip0">
<rect width="20.9091" height="20" fill="white"/>
</clipPath>
</defs>
</svg>
