<svg width="20" height="20" viewBox="0 0 20 20" fill="none" xmlns="http://www.w3.org/2000/svg">
<path d="M19.1668 16.0868H16.9475C16.5869 14.8338 15.4834 13.9128 14.1668 13.9128C12.8501 13.9128 11.7476 14.8338 11.386 16.0868H0.833534C0.373341 16.0868 0 16.4765 0 16.9566C0 17.4364 0.373341 17.826 0.833534 17.826H11.386C11.7467 19.079 12.8501 20 14.1668 20C15.4834 20 16.5859 19.079 16.9475 17.826H19.1668C19.6276 17.826 20 17.4364 20 16.9566C20 16.4765 19.6276 16.0868 19.1668 16.0868Z" fill="#293440"/>
<path d="M19.1668 2.1737H16.9475C16.5859 0.920688 15.4834 0 14.1668 0C12.8501 0 11.7476 0.920688 11.386 2.1737H0.833534C0.373341 2.1737 0 2.56333 0 3.04343C0 3.52352 0.373341 3.91285 0.833534 3.91285H11.386C11.7476 5.16586 12.8501 6.08685 14.1668 6.08685C15.4834 6.08685 16.5859 5.16586 16.9475 3.91285H19.1668C19.6276 3.91285 20 3.52352 20 3.04343C20 2.56333 19.6276 2.1737 19.1668 2.1737Z" fill="#293440"/>
<path d="M19.1668 9.13025H8.61429C8.25271 7.87723 7.15018 6.95654 5.83353 6.95654C4.51689 6.95654 3.41435 7.87723 3.05277 9.13025H0.833534C0.373341 9.13025 0 9.51987 0 9.99997C0 10.4798 0.373341 10.8694 0.833534 10.8694H3.05247C3.41435 12.1224 4.51689 13.0434 5.83353 13.0434C7.15018 13.0434 8.25271 12.1224 8.61429 10.8694H19.1668C19.6276 10.8694 20 10.4798 20 9.99997C20 9.51987 19.6276 9.13025 19.1668 9.13025Z" fill="#293440"/>
</svg>
