<svg xmlns="http://www.w3.org/2000/svg" width="20" height="14" viewBox="0 0 20 14">
    <path fill="#293440" d="M10 0C4.054 0 .214 6.448.145 6.565.05 6.69 0 6.842 0 7c0 .135.038.268.108.381 0 .002.002.003.003.005C.122 7.41 3.346 14 10 14c6.626 0 9.845-6.525 9.884-6.605l.008-.014c.07-.113.108-.246.108-.381 0-.157-.05-.31-.143-.433l-.002-.002C19.786 6.448 15.945 0 10 0zm0 2.1c2.577 0 4.667 2.194 4.667 4.9 0 2.706-2.09 4.9-4.667 4.9S5.333 9.706 5.333 7c0-2.706 2.09-4.9 4.667-4.9zm0 2.8c-1.105 0-2 .94-2 2.1 0 1.16.895 2.1 2 2.1s2-.94 2-2.1c0-1.16-.895-2.1-2-2.1z"/>
</svg>
