<svg xmlns="http://www.w3.org/2000/svg" width="20" height="20" viewBox="0 0 20 20">
    <path fill="#293440" d="M1.138 0L.195.961 18.862 20l.943-.961-4.017-4.097c2.73-1.886 4.078-4.523 4.096-4.558.076-.113.116-.247.116-.384 0-.153-.051-.302-.145-.422C19.786 9.464 15.945 3.2 10 3.2c-1.687 0-3.2.51-4.51 1.237L1.138 0zM10 5.24c2.577 0 4.667 2.131 4.667 4.76 0 1.069-.354 2.049-.938 2.842l-1.436-1.465c.236-.403.374-.873.374-1.377 0-1.502-1.194-2.72-2.667-2.72-.494 0-.955.141-1.35.381L7.214 6.197C7.99 5.6 8.952 5.24 10 5.24zm-6.7.732C1.32 7.672.184 9.515.147 9.576.052 9.696 0 9.846 0 10c0 .133.039.263.11.375.012.024 3.236 6.424 9.89 6.424 1.233 0 2.347-.222 3.346-.58l-1.725-1.76c-.506.19-1.05.3-1.621.3-2.577 0-4.667-2.13-4.667-4.759 0-.582.108-1.137.296-1.653L3.3 5.972zm4.041 4.104c.04 1.44 1.172 2.595 2.583 2.636l-2.583-2.636z" opacity=".5"/>
</svg>
