<svg width="15" height="14" viewBox="0 0 15 14" fill="none" xmlns="http://www.w3.org/2000/svg">
<path d="M10.9573 13.6359C10.9573 13.8372 11.1201 14 11.3213 14C11.5226 14 11.6854 13.8372 11.6854 13.6359V1.24012L13.8638 3.41856C13.9349 3.4896 14.0266 3.52511 14.1213 3.52511C14.216 3.52511 14.3078 3.4896 14.3788 3.41856C14.5209 3.27649 14.5209 3.04858 14.3788 2.90651L11.5818 0.109469C11.4456 -0.0266833 11.2059 -0.0266833 11.0697 0.109469L8.27269 2.90651C8.13062 3.04858 8.13062 3.27649 8.27269 3.41856C8.41476 3.56063 8.64267 3.56063 8.78474 3.41856L10.9632 1.24012V13.6359H10.9573Z" fill="#1D68D9"/>
<path d="M6.21268 10.5814C6.07061 10.4393 5.84271 10.4393 5.70063 10.5814L3.5222 12.7598V0.364059C3.5222 0.162791 3.35941 0 3.15814 0C2.95687 0 2.79408 0.162791 2.79408 0.364059V12.7598L0.618605 10.5814C0.476533 10.4393 0.248626 10.4393 0.106554 10.5814C-0.035518 10.7235 -0.035518 10.9514 0.106554 11.0934L2.90359 13.8905C2.97463 13.9615 3.06638 13.997 3.1611 13.997C3.25581 13.997 3.34757 13.9615 3.4186 13.8905L6.21564 11.0934C6.3518 10.9543 6.3518 10.7235 6.21268 10.5814Z" fill="#1D68D9"/>
</svg>
