<svg width="22" height="22" viewBox="0 0 22 22" fill="none" xmlns="http://www.w3.org/2000/svg">
<path d="M21.6305 9.77418L11.7598 0.311544C11.3266 -0.103863 10.6732 -0.103818 10.2402 0.311499L0.369446 9.77422C0.0223885 10.1069 -0.0922517 10.6196 0.0773024 11.0802C0.246899 11.5408 0.659828 11.8384 1.12935 11.8384H2.70586V21.3193C2.70586 21.6952 2.99556 22 3.35284 22H8.76319C9.12047 22 9.41017 21.6952 9.41017 21.3193V15.5628H12.5899V21.3193C12.5899 21.6952 12.8796 22 13.2369 22H18.647C19.0043 22 19.294 21.6953 19.294 21.3193V11.8384H20.8708C21.3403 11.8384 21.7532 11.5408 21.9228 11.0802C22.0922 10.6195 21.9775 10.1069 21.6305 9.77418Z" fill="#293440"/>
<path d="M19.1251 1.35864H14.7802L19.7721 6.13413V2.03928C19.7721 1.66338 19.4824 1.35864 19.1251 1.35864Z" fill="#293440"/>
</svg>
