<svg width="20" height="20" viewBox="0 0 20 20" fill="none" xmlns="http://www.w3.org/2000/svg">
<g clip-path="url(#clip0)">
<path d="M18.0898 0.0919655H1.72576C0.721252 0.0919655 -0.0925293 0.905456 -0.0925293 1.90996V18.274C-0.0925293 19.2785 0.721252 20.0923 1.72576 20.0923H18.0898C19.0943 20.0923 19.9081 19.2785 19.9081 18.274L19.9078 1.90996C19.9078 0.905456 19.0943 0.0916748 18.0895 0.0916748L18.0898 0.0919655ZM6.49942 4.7848H12.0136C13.5853 4.7848 14.8713 6.07016 14.8713 7.6419V8.42457C14.8713 10.0862 13.5118 11.4457 11.8499 11.4457H8.20112V12.5377H9.40187V13.8661H8.20112V15.5678H6.49942V13.8661H5.33675V12.5377H6.49942V11.4457V11.4273H5.33907V10.0989H6.49942V9.9623V4.7848ZM8.20955 6.0719H11.4943C12.4302 6.0719 13.1963 6.83742 13.1963 7.7739V8.23995C13.1963 9.22963 12.3866 10.0396 11.3966 10.0396H8.20955V6.0719Z" fill="#293440"/>
</g>
<defs>
<clipPath id="clip0">
<rect width="20" height="20" fill="white"/>
</clipPath>
</defs>
</svg>
