<svg width="16" height="20" viewBox="0 0 16 20" fill="none" xmlns="http://www.w3.org/2000/svg">
<path d="M10.3324 0H0V20H15.6364V5.304L10.3324 0ZM3.27273 4.36364H6.90909C7.10982 4.36364 7.27273 4.52618 7.27273 4.72727C7.27273 4.92836 7.10982 5.09091 6.90909 5.09091H3.27273C3.072 5.09091 2.90909 4.92836 2.90909 4.72727C2.90909 4.52618 3.072 4.36364 3.27273 4.36364ZM12.3636 16.7273H3.27273C3.072 16.7273 2.90909 16.5647 2.90909 16.3636C2.90909 16.1625 3.072 16 3.27273 16H12.3636C12.5644 16 12.7273 16.1625 12.7273 16.3636C12.7273 16.5647 12.5644 16.7273 12.3636 16.7273ZM12.3636 13.8182H3.27273C3.072 13.8182 2.90909 13.6556 2.90909 13.4545C2.90909 13.2535 3.072 13.0909 3.27273 13.0909H12.3636C12.5644 13.0909 12.7273 13.2535 12.7273 13.4545C12.7273 13.6556 12.5644 13.8182 12.3636 13.8182ZM12.3636 10.9091H3.27273C3.072 10.9091 2.90909 10.7465 2.90909 10.5455C2.90909 10.3444 3.072 10.1818 3.27273 10.1818H12.3636C12.5644 10.1818 12.7273 10.3444 12.7273 10.5455C12.7273 10.7465 12.5644 10.9091 12.3636 10.9091ZM12.3636 8H3.27273C3.072 8 2.90909 7.83745 2.90909 7.63636C2.90909 7.43527 3.072 7.27273 3.27273 7.27273H12.3636C12.5644 7.27273 12.7273 7.43527 12.7273 7.63636C12.7273 7.83745 12.5644 8 12.3636 8ZM9.81818 5.81818V0.727273L14.9091 5.81818H9.81818Z" fill="#293440"/>
</svg>
