<svg width="22" height="16" viewBox="0 0 22 16" fill="none" xmlns="http://www.w3.org/2000/svg">
<path d="M0.763713 10.1922V0.931755C0.763713 0.417172 1.18085 0 1.69547 0H10.9511C11.4657 0 11.8829 0.417172 11.8829 0.931755V10.1922C11.8829 10.3638 11.7438 10.5028 11.5723 10.5028H1.0743C0.902734 10.5028 0.763713 10.3638 0.763713 10.1922ZM8.23795 13.3646C8.23795 14.4319 7.3727 15.2971 6.30545 15.2971C5.23819 15.2971 4.37294 14.4319 4.37294 13.3646C4.37294 12.2973 5.23819 11.4321 6.30545 11.4321C7.3727 11.4321 8.23795 12.2973 8.23795 13.3646ZM7.27166 13.3646C7.27166 12.831 6.83906 12.3984 6.30541 12.3984C5.77177 12.3984 5.33912 12.831 5.33912 13.3646C5.33912 13.8983 5.77177 14.3309 6.30541 14.3309C6.83906 14.3309 7.27166 13.8983 7.27166 13.3646ZM4.64099 11.4321H0.310585C0.139057 11.4321 0 11.5711 0 11.7427V12.6849C0 12.8565 0.139057 12.9955 0.310585 12.9955H3.78161C3.87223 12.3737 4.18609 11.8245 4.64099 11.4321ZM18.3491 13.3646C18.3491 14.4319 17.4838 15.2971 16.4166 15.2971C15.3493 15.2971 14.4841 14.4319 14.4841 13.3646C14.4841 12.2973 15.3493 11.4321 16.4166 11.4321C17.4838 11.4321 18.3491 12.2973 18.3491 13.3646ZM17.3829 13.3646C17.3829 12.831 16.9502 12.3984 16.4166 12.3984C15.8829 12.3984 15.4503 12.831 15.4503 13.3646C15.4503 13.8983 15.8829 14.3309 16.4166 14.3309C16.9502 14.3309 17.3829 13.8983 17.3829 13.3646ZM21.7655 11.7427V12.6849C21.7655 12.8565 21.6264 12.9955 21.4549 12.9955H18.9403C18.7605 11.762 17.6989 10.8109 16.4167 10.8109C15.1341 10.8109 14.0725 11.7621 13.8927 12.9955H8.82928C8.73863 12.3738 8.42481 11.8245 7.9699 11.4321H12.7709V2.54838C12.7709 2.20532 13.049 1.92721 13.3921 1.92721H16.3242C17.1498 1.92721 17.9214 2.3373 18.3834 3.02153L20.2736 5.8212C20.5509 6.23186 20.699 6.71604 20.699 7.21156V11.4321H21.4549C21.6264 11.4321 21.7655 11.5711 21.7655 11.7427ZM18.6148 5.8929L17.1032 3.74505C17.045 3.6624 16.9503 3.61321 16.8492 3.61321H14.4915C14.32 3.61321 14.1809 3.75227 14.1809 3.9238V6.07165C14.1809 6.24321 14.3199 6.38223 14.4915 6.38223H18.3608C18.6124 6.38223 18.7596 6.09868 18.6148 5.8929Z" fill="#293440"/>
</svg>
