<svg width="22" height="22" viewBox="0 0 22 22" fill="none" xmlns="http://www.w3.org/2000/svg">
<g clip-path="url(#clip0)">
<path d="M17.6459 0H4.35421C2.96362 0 1.83337 1.13025 1.83337 2.52083V19.4792C1.83337 20.8697 2.96362 22 4.35421 22H17.6459C19.0365 22 20.1667 20.8697 20.1667 19.4792V2.52083C20.1667 1.13025 19.0365 0 17.6459 0ZM8.25004 19.25H5.27087C4.89137 19.25 4.58337 18.942 4.58337 18.5625V16.2708H8.25004V19.25ZM8.25004 14.8958H4.58337V11.6875H8.25004V14.8958ZM8.25004 10.3125H4.58337V8.02083C4.58337 7.64133 4.89137 7.33333 5.27087 7.33333H8.25004V10.3125ZM17.4167 18.5625C17.4167 18.942 17.1087 19.25 16.7292 19.25H9.62504V16.2708H17.4167V18.5625ZM17.4167 14.8958H9.62504V11.6875H17.4167V14.8958ZM17.4167 10.3125H9.62504V8.82292V7.33333H16.7292C17.1087 7.33333 17.4167 7.64133 17.4167 8.02083V10.3125Z" fill="#293440"/>
</g>
<defs>
<clipPath id="clip0">
<rect width="22" height="22" fill="white"/>
</clipPath>
</defs>
</svg>
