<svg width="16" height="20" viewBox="0 0 16 20" fill="none" xmlns="http://www.w3.org/2000/svg">
<path d="M7.97772 1.40781C9.06445 1.40781 9.94855 2.29191 9.94855 3.37859H11.3564C11.3564 1.51564 9.84071 0 7.97772 0C6.11477 0 4.59912 1.51564 4.59912 3.37859H6.00693C6.00693 2.29191 6.89103 1.40781 7.97772 1.40781Z" fill="#293440"/>
<path d="M15.9513 19.2186L15.0149 4.7329C14.9935 4.3604 14.6853 4.06921 14.3121 4.06921H1.64247C1.26935 4.06921 0.961042 4.3604 0.939691 4.7329L0.00115309 19.256C-0.00992166 19.4493 0.0591547 19.6387 0.192145 19.7795C0.325089 19.9203 0.510216 20 0.703883 20H15.2506C15.251 20 15.2513 20 15.2515 20C15.6403 20 15.9554 19.6849 15.9554 19.2961C15.9555 19.27 15.954 19.2441 15.9513 19.2186ZM6.59246 6.30683C6.59246 6.79895 6.19353 7.19788 5.70141 7.19788C5.20929 7.19788 4.81036 6.79895 4.81036 6.30683V5.79969C4.81036 5.30757 5.20929 4.90864 5.70141 4.90864C6.19353 4.90864 6.59246 5.30757 6.59246 5.79969V6.30683ZM11.1452 6.30683C11.1452 6.79895 10.7462 7.19788 10.2541 7.19788C9.76199 7.19788 9.36307 6.79895 9.36307 6.30683V5.79969C9.36307 5.30757 9.76199 4.90864 10.2541 4.90864C10.7462 4.90864 11.1452 5.30757 11.1452 5.79969V6.30683Z" fill="#293440"/>
</svg>
