<svg width="22" height="22" viewBox="0 0 22 22" fill="none" xmlns="http://www.w3.org/2000/svg">
<g clip-path="url(#clip0)">
<path d="M19.8987 0.10115H1.89831C0.793353 0.10115 -0.101807 0.995989 -0.101807 2.10095V20.1014C-0.101807 21.2063 0.793353 22.1015 1.89831 22.1015H19.8987C21.0037 22.1015 21.8988 21.2063 21.8988 20.1014L21.8985 2.10095C21.8985 0.995989 21.0037 0.10083 19.8984 0.10083L19.8987 0.10115ZM7.14933 5.26327H13.2149C14.9438 5.26327 16.3584 6.67716 16.3584 8.40608V9.26702C16.3584 11.0948 14.8629 12.5902 13.0349 12.5902H9.0212V13.7914H10.342V15.2527H9.0212V17.1245H7.14933V15.2527H5.8704V13.7914H7.14933V12.5902V12.5701H5.87296V11.1088H7.14933V10.9585V5.26327ZM9.03048 6.67908H12.6437C13.6732 6.67908 14.5159 7.52115 14.5159 8.55127V9.06394C14.5159 10.1526 13.6252 11.0436 12.5363 11.0436H9.03048V6.67908Z" fill="#293440"/>
</g>
<defs>
<clipPath id="clip0">
<rect width="22" height="22" fill="white"/>
</clipPath>
</defs>
</svg>
