<svg width="20" height="20" viewBox="0 0 20 20" fill="none" xmlns="http://www.w3.org/2000/svg">
<path d="M19.7804 2.07157C19.6339 1.92514 19.4599 1.85168 19.2596 1.85168H7.40754C7.20695 1.85168 7.03324 1.92514 6.88673 2.07157C6.74018 2.2182 6.66684 2.39191 6.66684 2.5925V4.81478H4.81489C4.60652 4.81478 4.38071 4.86493 4.13768 4.96522C3.89461 5.06568 3.69982 5.18892 3.55327 5.33555L1.2615 7.62727C1.16125 7.72757 1.07453 7.84322 1.00108 7.97449C0.927822 8.10543 0.873783 8.2234 0.839041 8.32738C0.80438 8.43165 0.779164 8.57423 0.763881 8.75572C0.748557 8.93714 0.738747 9.07023 0.734896 9.15516C0.731207 9.23996 0.731207 9.38663 0.734896 9.59501C0.738787 9.80346 0.740733 9.93837 0.740733 10.0002V13.7039C0.540186 13.7039 0.366596 13.7771 0.219925 13.9239C0.0733355 14.0702 0 14.244 0 14.4446C0 14.5602 0.0153238 14.6626 0.0462147 14.7512C0.0771462 14.84 0.129158 14.9113 0.202615 14.9654C0.27587 15.0195 0.339557 15.0638 0.393515 15.0986C0.447634 15.1332 0.53828 15.1563 0.665573 15.1679C0.792867 15.1796 0.879621 15.1874 0.925957 15.1912C0.972293 15.1949 1.0706 15.1949 1.22104 15.1912C1.37165 15.1874 1.4584 15.1854 1.48159 15.1854H2.22228C2.22228 16.0031 2.51169 16.7015 3.09027 17.2802C3.66905 17.8589 4.36729 18.1483 5.18525 18.1483C6.00313 18.1483 6.70146 17.8589 7.28012 17.2802C7.8589 16.7015 8.14811 16.0031 8.14811 15.1854H12.5927C12.5927 16.0031 12.8821 16.7015 13.4607 17.2802C14.0393 17.8589 14.7376 18.1483 15.5556 18.1483C16.3737 18.1483 17.0716 17.8589 17.6505 17.2802C18.2292 16.7015 18.5185 16.0031 18.5185 15.1854C18.5415 15.1854 18.6284 15.1874 18.7788 15.1912C18.9293 15.1949 19.0277 15.1949 19.074 15.1912C19.1203 15.1874 19.2073 15.1796 19.3345 15.1679C19.4618 15.1563 19.5523 15.1333 19.6064 15.0986C19.6606 15.0639 19.7241 15.0195 19.7973 14.9654C19.8707 14.9113 19.9229 14.84 19.9537 14.7512C19.9849 14.6625 20 14.5602 20 14.4446V2.59262C20.0002 2.39199 19.9269 2.21848 19.7804 2.07157ZM6.22671 16.2271C5.93365 16.5202 5.58631 16.6671 5.18509 16.6671C4.78383 16.6671 4.43658 16.5203 4.14335 16.2271C3.85013 15.934 3.70359 15.5867 3.70359 15.1855C3.70359 14.7843 3.8503 14.4367 4.14335 14.1436C4.43653 13.8506 4.78379 13.7038 5.18509 13.7038C5.58631 13.7038 5.93361 13.8505 6.22671 14.1436C6.52005 14.4367 6.66668 14.7843 6.66668 15.1855C6.66668 15.5867 6.52005 15.934 6.22671 16.2271ZM6.66668 9.2593H2.22212V8.9122C2.22212 8.81187 2.25678 8.72698 2.32622 8.6575L4.58321 6.40059C4.65261 6.33111 4.73762 6.29649 4.83791 6.29649H6.66668V9.2593ZM16.5972 16.2271C16.3041 16.5202 15.9568 16.6671 15.5556 16.6671C15.1543 16.6671 14.8068 16.5203 14.5137 16.2271C14.2206 15.934 14.0739 15.5867 14.0739 15.1855C14.0739 14.7843 14.2206 14.4367 14.5137 14.1436C14.8068 13.8506 15.1543 13.7038 15.5556 13.7038C15.9568 13.7038 16.3041 13.8505 16.5972 14.1436C16.8903 14.4369 17.0371 14.7843 17.0371 15.1855C17.0371 15.5867 16.8906 15.934 16.5972 16.2271Z" fill="#293440"/>
</svg>
