<svg width="40" height="40" viewBox="0 0 40 40" fill="none" xmlns="http://www.w3.org/2000/svg">
<path d="M11.1065 34.071C11.4405 33.904 11.6075 33.6534 11.6075 33.3194V19.8747C11.6075 19.5407 11.4405 19.2067 11.1065 19.1232C9.68685 18.5386 8.10021 18.3716 6.59708 18.6221V14.7808C6.68058 7.51566 12.5261 1.67015 19.7912 1.67015C27.0564 1.67015 32.9019 7.51566 32.9019 14.7808V18.6221C31.3987 18.3716 29.8956 18.5386 28.3925 19.1232C28.0585 19.2902 27.8914 19.5407 27.8914 19.8747V33.2359C27.6409 33.904 26.3048 37.4113 22.2964 37.3278C22.2964 37.3278 22.2964 37.3278 22.2964 37.2443C22.2964 35.7411 21.0438 34.4885 19.5407 34.4885C18.0376 34.4885 16.785 35.7411 16.785 37.2443C16.785 38.7474 18.0376 40 19.5407 40C20.4593 40 21.2109 39.5825 21.7119 38.9144C25.3027 39.1649 27.9749 37.1608 29.2276 34.3215C34.4885 35.9916 39.5825 31.9833 39.5825 26.6388C39.5825 23.382 37.5783 20.3758 34.572 19.1232V14.7808C34.572 6.59708 27.9749 0 19.7912 0C11.6075 0 5.01044 6.59708 5.01044 14.6973V19.1232C2.00418 20.3758 0 23.2985 0 26.6388C0 32.2338 5.762 36.2422 11.1065 34.071ZM19.5407 38.3299C18.9562 38.3299 18.4551 37.8288 18.4551 37.2443C18.4551 36.6597 18.9562 36.1587 19.5407 36.1587C20.1253 36.1587 20.6263 36.6597 20.6263 37.2443C20.6263 37.8288 20.1253 38.3299 19.5407 38.3299ZM37.9123 26.5553C37.9123 30.8142 33.7369 33.9875 29.4781 32.7349V20.3758C33.6534 19.2067 37.9123 22.2129 37.9123 26.5553ZM10.1044 20.3758V32.6514C5.92902 33.9875 1.67015 30.8142 1.67015 26.5553C1.67015 22.2129 5.84551 19.2067 10.1044 20.3758Z" fill="#8B9298"/>
</svg>
