<svg xmlns="http://www.w3.org/2000/svg" width="216" height="85" viewBox="0 0 216 85">
    <g fill="none" fill-rule="evenodd">
        <path fill="#1D68D9" d="M119 7c3.866 0 7 3.134 7 7s-3.134 7-7 7h64c3.866 0 7 3.134 7 7s-3.134 7-7 7h22c3.866 0 7 3.134 7 7s-3.134 7-7 7h-19c-3.866 0-7 3.134-7 7s3.134 7 7 7h6c3.866 0 7 3.134 7 7s-3.134 7-7 7H46c-3.866 0-7-3.134-7-7s3.134-7 7-7H7c-3.866 0-7-3.134-7-7s3.134-7 7-7h40c3.866 0 7-3.134 7-7s-3.134-7-7-7H22c-3.866 0-7-3.134-7-7s3.134-7 7-7h40c-3.866 0-7-3.134-7-7s3.134-7 7-7h57zm90 56c3.866 0 7 3.134 7 7s-3.134 7-7 7-7-3.134-7-7 3.134-7 7-7z" opacity=".1" transform="translate(0 1)"/>
        <path fill="#FFF" stroke="#1D68D9" stroke-linecap="round" stroke-width="2" d="M75 83c-12.15 0-22-9.626-22-21.5S62.85 40 75 40c.517 0 1.03.017 1.537.052C76.184 38.088 76 36.065 76 34c0-18.778 15.222-34 34-34 14.991 0 27.716 9.702 32.239 23.17 1.071-.113 2.16-.17 3.261-.17 16.845 0 30.5 13.431 30.5 30 0 15.74-12.325 28.727-28 29.978V83H91.508m-4.512 0h-6.965" transform="translate(0 1)"/>
        <path stroke="#1D68D9" stroke-linecap="round" stroke-width="2" d="M120 12c6.509 1.723 11.648 6.813 13.44 13.293M91 44c0 3.866 3.134 7 7 7s7-3.134 7-7M120 44c0 3.866 3.134 7 7 7s7-3.134 7-7M105 63h14.5" transform="translate(0 1)"/>
        <path fill="#1D68D9" fill-rule="nonzero" d="M59.384 14.95v1.159l-5.077 6.236h5.199v1.318h-7.139v-1.245l5.077-6.15h-4.687v-1.319h6.627zM49.154 3.291v1.594l-6.98 8.575h7.148v1.812h-9.816V13.56l6.98-8.457h-6.443V3.292h9.111z" transform="translate(0 1)"/>
    </g>
</svg>
