<svg width="70" height="70" viewBox="0 0 70 70" fill="none" xmlns="http://www.w3.org/2000/svg">
<path d="M35.0004 39.4281C13.968 39.4281 2.38477 49.378 2.38477 67.4452C2.38477 68.8563 3.52842 69.9999 4.93949 69.9999H65.0611C66.4722 69.9999 67.6159 68.8563 67.6159 67.4452C67.616 49.3789 56.0328 39.4281 35.0004 39.4281ZM7.58719 64.8905C8.59207 51.3818 17.8019 44.5377 35.0004 44.5377C52.1989 44.5377 61.4088 51.3818 62.4146 64.8905H7.58719Z" fill="#8B9298"/>
<path d="M35.0011 0C25.3399 0 18.0547 7.43176 18.0547 17.2863C18.0547 27.4295 25.6568 35.6804 35.0011 35.6804C44.3454 35.6804 51.9476 27.4295 51.9476 17.2871C51.9476 7.43176 44.6624 0 35.0011 0ZM35.0011 30.5718C28.4738 30.5718 23.1641 24.6124 23.1641 17.2871C23.1641 10.2309 28.1425 5.10945 35.0011 5.10945C41.75 5.10945 46.8381 10.3441 46.8381 17.2871C46.8381 24.6124 41.5285 30.5718 35.0011 30.5718Z" fill="#8B9298"/>
</svg>
