<svg width="20" height="14" viewBox="0 0 20 14" fill="none" xmlns="http://www.w3.org/2000/svg">
<path d="M15.9573 13.6359C15.9573 13.8372 16.1201 14 16.3213 14C16.5226 14 16.6854 13.8372 16.6854 13.6359V1.24012L18.8638 3.41856C18.9349 3.4896 19.0266 3.52511 19.1213 3.52511C19.216 3.52511 19.3078 3.4896 19.3788 3.41856C19.5209 3.27649 19.5209 3.04858 19.3788 2.90651L16.5818 0.109469C16.4456 -0.0266833 16.2059 -0.0266833 16.0697 0.109469L13.2727 2.90651C13.1306 3.04858 13.1306 3.27649 13.2727 3.41856C13.4148 3.56063 13.6427 3.56063 13.7847 3.41856L15.9632 1.24012V13.6359H15.9573Z" fill="#FFFFFF"/>
<path d="M0 14H13V13H0V14ZM3 11.5H13V10.5H3V11.5ZM6 8.00003V9.00003H13V8.00003H6Z" fill="#FFFFFF"/>
</svg>
