<svg width="45" height="46" viewBox="0 0 45 46" fill="none" xmlns="http://www.w3.org/2000/svg">
<path d="M0.126241 39.2005C0.236534 39.3398 0.404531 39.4211 0.582193 39.4211H13.6731C14.7561 43.2129 18.2454 46 22.3801 46C26.5148 46 30.004 43.2129 31.087 39.4211H44.1779C44.3556 39.4211 44.5236 39.3398 44.6339 39.2005C44.7445 39.0618 44.7854 38.8793 44.7447 38.7065L38.995 14.101H41.0425C41.364 14.101 41.6247 13.8406 41.6247 13.5188V10.2845C41.6247 9.96272 41.364 9.70234 41.0425 9.70234H26.5462V4.16611C26.5462 1.86872 24.6772 0 22.3801 0C20.083 0 18.214 1.86872 18.214 4.16611V9.70234H3.71758C3.39608 9.70234 3.13541 9.96272 3.13541 10.2845V13.5188C3.13541 13.8406 3.39608 14.101 3.71758 14.101H5.7651L0.0153801 38.7065C-0.025269 38.8793 0.0156644 39.0618 0.126241 39.2005ZM22.3801 44.8357C18.0258 44.8357 14.4833 41.2932 14.4833 36.9389C14.4833 32.5847 18.0258 29.0422 22.3801 29.0422C26.7343 29.0422 30.2768 32.5847 30.2768 36.9389C30.2768 41.2932 26.7343 44.8357 22.3801 44.8357ZM26.5462 10.8667H40.4604V12.9366H38.2611H26.5462V10.8667ZM19.3783 10.2873C19.3783 10.2863 19.3788 10.2855 19.3788 10.2845C19.3788 10.2835 19.3783 10.2827 19.3783 10.2817V4.16611C19.3783 2.51115 20.7248 1.16433 22.3801 1.16433C24.0353 1.16433 25.3818 2.51115 25.3818 4.16611V19.3757C25.3818 21.0307 24.0353 22.3775 22.3801 22.3775C20.7248 22.3775 19.3783 21.0307 19.3783 19.3757V10.2873ZM4.29974 12.9366V10.8667H18.214V12.9366H6.49905H4.29974ZM6.9608 14.101H18.214V19.3757C18.214 21.6731 20.083 23.5418 22.3801 23.5418C24.6772 23.5418 26.5462 21.6731 26.5462 19.3757V14.101H37.7993L43.444 38.2568H31.3341C31.3974 37.8253 31.4411 37.3876 31.4411 36.9389C31.4411 31.9428 27.3762 27.8779 22.3801 27.8779C17.3839 27.8779 13.319 31.9428 13.319 36.9389C13.319 37.3876 13.3627 37.8253 13.426 38.2568H1.31615L6.9608 14.101Z" fill="#8B9298"/>
</svg>
