<svg width="14" height="14" viewBox="0 0 14 14" fill="none" xmlns="http://www.w3.org/2000/svg">
<path d="M12.2712 1.41474H11.2525V0.898947C11.2525 0.397895 10.8357 0 10.3109 0C9.78611 0 9.36935 0.397895 9.36935 0.898947V1.41474H4.61521V0.898947C4.61521 0.397895 4.19846 0 3.67365 0C3.14884 0 2.73208 0.397895 2.73208 0.898947V1.41474H1.71334C0.771775 1.41474 0 2.15158 0 3.05053V3.89053H14V3.05053C13.9846 2.13684 13.2282 1.41474 12.2712 1.41474Z" fill="#293440"/>
<path d="M0 12.3645C0 13.2634 0.771775 14.0003 1.71334 14.0003H12.2867C13.2282 14.0003 14 13.2634 14 12.3645V4.92236H0V12.3645ZM9.18412 7.70763C9.18412 7.54552 9.32304 7.42763 9.4774 7.42763H10.882C11.0518 7.42763 11.1753 7.56026 11.1753 7.70763V8.59184C11.1753 8.75394 11.0364 8.87184 10.882 8.87184H9.4774C9.30761 8.87184 9.18412 8.7392 9.18412 8.59184V7.70763ZM9.18412 10.3308C9.18412 10.1687 9.32304 10.0508 9.4774 10.0508H10.882C11.0518 10.0508 11.1753 10.1834 11.1753 10.3308V11.215C11.1753 11.3771 11.0364 11.495 10.882 11.495H9.4774C9.30761 11.495 9.18412 11.3624 9.18412 11.215V10.3308ZM5.98897 7.70763C5.98897 7.54552 6.12789 7.42763 6.28225 7.42763H7.68688C7.85667 7.42763 7.98015 7.56026 7.98015 7.70763V8.59184C7.98015 8.75394 7.84123 8.87184 7.68688 8.87184H6.28225C6.11246 8.87184 5.98897 8.7392 5.98897 8.59184V7.70763ZM5.98897 10.3308C5.98897 10.1687 6.12789 10.0508 6.28225 10.0508H7.68688C7.85667 10.0508 7.98015 10.1834 7.98015 10.3308V11.215C7.98015 11.3771 7.84123 11.495 7.68688 11.495H6.28225C6.11246 11.495 5.98897 11.3624 5.98897 11.215V10.3308ZM2.80926 7.70763C2.80926 7.54552 2.94818 7.42763 3.10254 7.42763H4.50717C4.67696 7.42763 4.80044 7.56026 4.80044 7.70763V8.59184C4.80044 8.75394 4.66152 8.87184 4.50717 8.87184H3.10254C2.93274 8.87184 2.80926 8.7392 2.80926 8.59184V7.70763ZM2.80926 10.3308C2.80926 10.1687 2.94818 10.0508 3.10254 10.0508H4.50717C4.67696 10.0508 4.80044 10.1834 4.80044 10.3308V11.215C4.80044 11.3771 4.66152 11.495 4.50717 11.495H3.10254C2.93274 11.495 2.80926 11.3624 2.80926 11.215V10.3308Z" fill="#293440"/>
</svg>
