<svg width="28" height="25" viewBox="0 0 28 25" fill="none" xmlns="http://www.w3.org/2000/svg">
<path d="M14.5387 0C21.442 0 27.0387 5.59673 27.0387 12.5C27.0387 19.4033 21.442 25 14.5387 25C11.9574 25 9.45648 24.208 7.34678 22.7209L0.725013 23.2489C0.187447 23.2903 -0.1704 22.7153 0.0832738 22.2549L2.91424 17.0979C2.33851 15.6411 2.03871 14.0666 2.03871 12.5C2.03871 5.59673 7.63544 0 14.5387 0V0ZM14.5387 1.3471C8.37976 1.3471 3.38581 6.34105 3.38581 12.5C3.38581 14.0006 3.67765 15.4709 4.26531 16.8522C4.35358 17.0407 4.35438 17.2673 4.24702 17.4637L1.86138 21.8096L7.48514 21.3611C7.64021 21.35 7.79925 21.3913 7.93444 21.4899C9.85568 22.9022 12.1547 23.6529 14.5387 23.6529C20.6977 23.6529 25.6916 18.6589 25.6916 12.5C25.6916 6.34105 20.6977 1.3471 14.5387 1.3471Z" fill="white"/>
<path fill-rule="evenodd" clip-rule="evenodd" d="M19.5148 10.959C20.3656 10.959 21.0559 11.6492 21.0559 12.5001C21.0559 13.351 20.3656 14.0412 19.5148 14.0412C18.6639 14.0412 17.9736 13.351 17.9736 12.5001C17.9736 11.6492 18.6639 10.959 19.5148 10.959Z" fill="white"/>
<path fill-rule="evenodd" clip-rule="evenodd" d="M14.5392 10.959C15.3901 10.959 16.0803 11.6492 16.0803 12.5001C16.0803 13.351 15.3901 14.0412 14.5392 14.0412C13.6883 14.0412 12.998 13.351 12.998 12.5001C12.998 11.6492 13.6883 10.959 14.5392 10.959Z" fill="white"/>
<path fill-rule="evenodd" clip-rule="evenodd" d="M9.56359 10.959C10.4145 10.959 11.1047 11.6492 11.1047 12.5001C11.1047 13.351 10.4145 14.0412 9.56359 14.0412C8.71271 14.0412 8.02246 13.351 8.02246 12.5001C8.02246 11.6492 8.71271 10.959 9.56359 10.959Z" fill="white"/>
</svg>
