<svg width="22" height="20" viewBox="0 0 22 20" fill="none" xmlns="http://www.w3.org/2000/svg">
<path d="M7.08816 13.2228H7.08917C7.09001 13.2228 7.09085 13.2227 7.09169 13.2227H18.7773C19.065 13.2227 19.318 13.0318 19.397 12.7552L21.9752 3.73177C22.0307 3.53723 21.9918 3.32809 21.8701 3.16663C21.7482 3.00516 21.5577 2.91016 21.3555 2.91016H5.60171L5.14098 0.836746C5.07535 0.54184 4.81384 0.332031 4.51172 0.332031H0.644531C0.288528 0.332031 0 0.62056 0 0.976562C0 1.33257 0.288528 1.62109 0.644531 1.62109H3.99475C4.07632 1.98851 6.19958 11.5434 6.32178 12.093C5.63679 12.3908 5.15625 13.0738 5.15625 13.8672C5.15625 14.9333 6.02368 15.8008 7.08984 15.8008H18.7773C19.1333 15.8008 19.4219 15.5123 19.4219 15.1562C19.4219 14.8002 19.1333 14.5117 18.7773 14.5117H7.08984C6.73451 14.5117 6.44531 14.2225 6.44531 13.8672C6.44531 13.5124 6.7335 13.2237 7.08816 13.2228ZM20.501 4.19922L18.2911 11.9336H7.60681L5.88806 4.19922H20.501Z" fill="#1D68D9"/>
<path d="M6.44531 17.7344C6.44531 18.8005 7.31274 19.668 8.37891 19.668C9.44507 19.668 10.3125 18.8005 10.3125 17.7344C10.3125 16.6682 9.44507 15.8008 8.37891 15.8008C7.31274 15.8008 6.44531 16.6682 6.44531 17.7344ZM8.37891 17.0898C8.73424 17.0898 9.02344 17.379 9.02344 17.7344C9.02344 18.0897 8.73424 18.3789 8.37891 18.3789C8.02357 18.3789 7.73438 18.0897 7.73438 17.7344C7.73438 17.379 8.02357 17.0898 8.37891 17.0898Z" fill="#1D68D9"/>
<path d="M15.5547 17.7344C15.5547 18.8005 16.4221 19.668 17.4883 19.668C18.5544 19.668 19.4219 18.8005 19.4219 17.7344C19.4219 16.6682 18.5544 15.8008 17.4883 15.8008C16.4221 15.8008 15.5547 16.6682 15.5547 17.7344ZM17.4883 17.0898C17.8436 17.0898 18.1328 17.379 18.1328 17.7344C18.1328 18.0897 17.8436 18.3789 17.4883 18.3789C17.1329 18.3789 16.8438 18.0897 16.8438 17.7344C16.8438 17.379 17.1329 17.0898 17.4883 17.0898Z" fill="#1D68D9"/>
</svg>
