<svg width="18" height="20" viewBox="0 0 18 20" fill="none" xmlns="http://www.w3.org/2000/svg">
<path d="M10.2761 5.86682C10.107 5.86682 9.93787 6.02053 9.93787 6.53553C9.93787 7.05057 10.107 7.20428 10.2761 7.20428C10.4452 7.20428 10.6143 7.05053 10.6143 6.53553C10.6143 6.02053 10.4452 5.86682 10.2761 5.86682Z" fill="#1D68D9"/>
<path d="M6.67128 3.99903C6.67128 3.48403 6.50218 3.33032 6.33308 3.33032C6.16397 3.33032 5.99487 3.48407 5.99487 3.99903C5.99487 4.51407 6.16397 4.66778 6.33308 4.66778C6.50218 4.66778 6.67128 4.51407 6.67128 3.99903Z" fill="#1D68D9"/>
<path d="M4.97774 9.52351H11.5321L13.4372 7.38027C13.7258 7.05559 14.0827 6.80625 14.4763 6.64434C14.4855 6.50578 14.4907 6.36605 14.4907 6.22519C14.4907 2.79262 11.6981 0 8.26548 0C4.8329 0 2.04028 2.79262 2.04028 6.22519C2.04028 7.58043 2.47587 8.83566 3.21399 9.85891C3.76786 9.63894 4.36388 9.52351 4.97774 9.52351ZM4.90321 3.99887C4.90321 3.04574 5.51814 2.5 6.33294 2.5C7.14774 2.5 7.76267 3.04574 7.76267 3.99887C7.76267 4.95973 7.14774 5.49777 6.33294 5.49777C5.51814 5.49777 4.90321 4.95973 4.90321 3.99887ZM5.81794 7.9575L9.49212 2.57687H10.7911L7.11696 7.9575H5.81794ZM10.2762 8.03437C9.46142 8.03437 8.84646 7.49633 8.84646 6.53547C8.84646 5.58234 9.46138 5.0366 10.2762 5.0366C11.091 5.0366 11.7059 5.58234 11.7059 6.53547C11.7059 7.49629 11.0909 8.03437 10.2762 8.03437Z" fill="#1D68D9"/>
<path d="M16.6131 7.98676C16.3036 7.72887 15.9273 7.60254 15.5526 7.60254C15.095 7.60254 14.64 7.79113 14.3131 8.15891L12.2744 10.4523C12.5077 10.7928 12.6443 11.2035 12.6443 11.6454C12.6443 12.8182 11.6828 13.7725 10.501 13.7725H7.38626V12.6006H10.5009C11.0366 12.6006 11.4724 12.1721 11.4724 11.6454C11.4724 11.1526 11.0908 10.7458 10.603 10.6955H4.97774C2.98868 10.6955 1.37622 12.3079 1.37622 14.297V16.4975H7.49138V15.6775H12.4735L16.8384 10.3054C17.4106 9.60117 17.3102 8.56769 16.6131 7.98676Z" fill="#1D68D9"/>
<path d="M8.07731 17.6694H0.790283V20.0001H8.07731V17.6694Z" fill="#1D68D9"/>
</svg>
