<svg width="19" height="14" viewBox="0 0 19 14" fill="none" xmlns="http://www.w3.org/2000/svg">
<path d="M8.61257 6.9334C8.10392 7.44233 7.73871 8.07658 7.55389 8.77197L6.80469 11.5949L9.64087 10.8932C10.3621 10.7148 11.0209 10.3429 11.5462 9.81759L18.4557 2.90885L15.5466 0L8.61257 6.9334ZM13.6407 2.57527L15.8802 4.81458L14.887 5.80781L12.6474 3.56845L13.6407 2.57527ZM11.2115 9.48286C10.7471 9.94722 10.1647 10.276 9.52716 10.4337L7.46744 10.9432L8.01144 8.89345C8.17483 8.27873 8.49767 7.71807 8.9473 7.26817L12.3128 3.90318L14.5523 6.1425L11.2115 9.48286ZM16.2152 4.47985L13.9756 2.24054L15.5466 0.669541L17.7861 2.90885L16.2152 4.47985Z" fill="#8B9298"/>
<path d="M9.21998 3.72168H0V4.19513H9.21998V3.72168Z" fill="#8B9298"/>
<path d="M5.53462 6.99023H0V7.46369H5.53462V6.99023Z" fill="#8B9298"/>
<path d="M5.53462 10.2583H0V10.7318H5.53462V10.2583Z" fill="#8B9298"/>
<path d="M10.681 13.5264H0V13.9998H10.681V13.5264Z" fill="#8B9298"/>
</svg>
